<?xml version="1.0" encoding="utf-8"?>
<!-- Generator: Adobe Illustrator 23.0.1, SVG Export Plug-In . SVG Version: 6.00 Build 0)  -->
<svg version="1.1" id="Layer_1" xmlns="http://www.w3.org/2000/svg" xmlns:xlink="http://www.w3.org/1999/xlink" x="0px" y="0px"
	 viewBox="0 0 33 27" style="enable-background:new 0 0 33 27;" xml:space="preserve">
<style type="text/css">
	.st0{clip-path:url(#SVGID_2_);}
	.st1{clip-path:url(#SVGID_4_);}
	.st2{clip-path:url(#SVGID_6_);}
	.st3{clip-path:url(#SVGID_8_);}
	.st4{clip-path:url(#SVGID_10_);}
	.st5{clip-path:url(#SVGID_12_);}
	.st6{clip-path:url(#SVGID_14_);}
</style>
<g>
	<defs>
		<path id="SVGID_1_" d="M8.7,3l0.6-2.5c0-0.1-0.1-0.2-0.2-0.2H5.7c-0.1,0-0.2,0.1-0.2,0.2L6.1,3c0.4-0.1,0.8-0.2,1.3-0.2
			C7.8,2.7,8.3,2.8,8.7,3z"/>
	</defs>
	<clipPath id="SVGID_2_">
		<use xlink:href="#SVGID_1_"  style="overflow:visible;"/>
	</clipPath>
	<rect fill="#ffffff" x="0.5" y="-4.7" class="st0" width="13.8" height="12.7"/>
</g>
<g>
	<defs>
		<path id="SVGID_3_" d="M15.5,3c0.1,0,0.2,0.1,0.3,0.2c0,0.2,0,0.3-0.1,0.3l-2.1,0.5c-0.1,0-0.3-0.1-0.3-0.2c0-0.2,0-0.3,0.1-0.3
			L15.5,3z M15.5,6.6c0.1,0,0.2,0.1,0.2,0.2c0,0.2,0,0.3-0.1,0.3l-1.4,0.3c-0.1,0-0.2-0.1-0.2-0.2c0-0.2,0-0.3,0.1-0.3L15.5,6.6z
			 M20.3,8.7c2.2-0.6,4.5,0.8,5.1,3s-0.8,4.5-3,5.1L20.3,8.7z M16.4,10c0.1,0,0.2,0.1,0.2,0.2c0,0.2,0,0.3-0.1,0.3l-1.4,0.3
			c-0.1,0-0.2-0.1-0.2-0.2c0-0.2,0-0.3,0.1-0.3L16.4,10z M18.1,13.2c0.1,0,0.2,0.1,0.3,0.2c0,0.2,0,0.3-0.1,0.3l-2.1,0.5
			c-0.1,0-0.3-0.1-0.3-0.2c0-0.2,0-0.3,0.1-0.3L18.1,13.2z M18.1,16.8c0.1,0,0.2,0.1,0.2,0.2c0,0.2,0,0.3-0.1,0.3l-1.4,0.3
			c-0.1,0-0.2-0.1-0.2-0.2c0-0.2,0-0.3,0.1-0.3L18.1,16.8z M19,20.2c0.1,0,0.2,0.1,0.2,0.2c0,0.2,0,0.3-0.1,0.3l-1.4,0.3
			c-0.1,0-0.2-0.1-0.2-0.2c0-0.2,0-0.3,0.1-0.3L19,20.2z M23.2,20.2c0-0.1,0.1-0.3,0.2-0.3c0.2,0,0.3,0,0.3,0.1l0.5,2.1
			c0,0.1-0.1,0.3-0.2,0.3c-0.2,0-0.3,0-0.3-0.1L23.2,20.2z M20.7,23.4c0.1,0,0.2,0.1,0.3,0.2c0,0.2,0,0.3-0.1,0.3l-2.1,0.5
			c-0.1,0-0.3-0.1-0.3-0.2c0-0.2,0-0.3,0.1-0.3L20.7,23.4z M28.4,20l-1-1c-0.1-0.1,0-0.2,0.1-0.3c0.1-0.1,0.2-0.2,0.3-0.1l1,1
			c0.1,0.1,0,0.2-0.1,0.3C28.6,20,28.4,20.1,28.4,20z M31.1,15.6l-1.4-0.4c-0.1,0-0.1-0.2-0.1-0.3c0-0.1,0.1-0.3,0.2-0.2l1.4,0.4
			c0.1,0,0.1,0.2,0.1,0.3C31.3,15.6,31.2,15.7,31.1,15.6z M29.2,11c-0.1,0-0.2-0.1-0.3-0.2c0-0.2,0-0.3,0.1-0.3l2.1-0.5
			c0.1,0,0.3,0.1,0.3,0.2c0,0.2,0,0.3-0.1,0.3L29.2,11z M27.6,6.7c-0.1-0.1-0.2-0.2-0.1-0.3l1-1c0.1-0.1,0.2,0,0.3,0.1
			C29,5.7,29,5.8,28.9,5.9l-1,1C27.9,6.9,27.7,6.9,27.6,6.7z M23.9,4.5c-0.1,0-0.3-0.1-0.2-0.2L24,2.9c0-0.1,0.2-0.1,0.3-0.1
			c0.2,0,0.3,0.1,0.2,0.2l-0.4,1.4C24.2,4.5,24,4.6,23.9,4.5z M19.4,2.9L20,5c0,0.1-0.1,0.3-0.2,0.3c-0.2,0-0.3,0-0.3-0.1l-0.5-2.1
			c0-0.1,0.1-0.3,0.2-0.3C19.3,2.7,19.4,2.8,19.4,2.9z M18.2,0.3l-6.2,1.6l0.9,3.5l4.5,17.8l0.9,3.5l6.2-1.6l-0.4-1.6
			c6-1.5,9.6-7.6,8.1-13.6c-1.5-6-7.6-9.6-13.6-8.1L18.2,0.3z"/>
	</defs>
	<clipPath id="SVGID_4_">
		<use xlink:href="#SVGID_3_"  style="overflow:visible;"/>
	</clipPath>
	<rect fill="#ffffff" x="6.9" y="-4.7" class="st1" width="30.6" height="36.4"/>
</g>
<g>
	<defs>
		<path id="SVGID_5_" d="M13.9,22.9l-1.5-5.1l-0.3-0.9l-1.9-6.5c-0.5,0.6-1.3,1-2.2,1.1l1.2,4.1l0.4,1.2L9.7,17l0.2,0.8l1.7,5.7
			c0.2,0.5,0.7,0.8,1.3,0.7l0.2,0l0.1,0c0.4-0.1,0.7-0.4,0.8-0.8L13.9,22.9z"/>
	</defs>
	<clipPath id="SVGID_6_">
		<use xlink:href="#SVGID_5_"  style="overflow:visible;"/>
	</clipPath>
	<rect fill="#ffffff" x="3" y="5.3" class="st2" width="15.9" height="23.9"/>
</g>
<g>
	<defs>
		<path id="SVGID_7_" d="M4.6,10.3l-1.9,6.5l-0.3,0.9l-1.5,5.1l0,0.4c0,0.4,0.3,0.7,0.8,0.8l0.1,0l0.2,0c0.6,0.1,1.1-0.2,1.3-0.7
			l1.7-5.7L5.1,17l0.1-0.2l0.4-1.2l1.2-4.1C5.9,11.3,5.1,10.9,4.6,10.3z"/>
	</defs>
	<clipPath id="SVGID_8_">
		<use xlink:href="#SVGID_7_"  style="overflow:visible;"/>
	</clipPath>
	<rect fill="#ffffff" x="-4.2" y="5.3" class="st3" width="15.9" height="23.9"/>
</g>
<g>
	<defs>
		<path id="SVGID_9_" d="M0.5,24.3c0,0,0.6,0.7,1.6,0.7l-0.9,1.6L0.5,24.3z"/>
	</defs>
	<clipPath id="SVGID_10_">
		<use xlink:href="#SVGID_9_"  style="overflow:visible;"/>
	</clipPath>
	<rect fill="#ffffff" x="-4.5" y="19.3" class="st4" width="11.6" height="12.4"/>
</g>
<g>
	<defs>
		<path id="SVGID_11_" d="M14.3,24.3c0,0-0.6,0.7-1.6,0.7l0.9,1.6L14.3,24.3z"/>
	</defs>
	<clipPath id="SVGID_12_">
		<use xlink:href="#SVGID_11_"  style="overflow:visible;"/>
	</clipPath>
	<rect fill="#ffffff" x="7.7" y="19.3" class="st5" width="11.6" height="12.4"/>
</g>
<g>
	<defs>
		<path id="SVGID_13_" d="M10.1,7.4H9.5c-0.1,0-0.3-0.1-0.3-0.3c0-0.2,0.1-0.3,0.3-0.3h0.6c0.1,0,0.3,0.1,0.3,0.3
			C10.3,7.2,10.2,7.4,10.1,7.4z M9.5,9.2c-0.1,0.1-0.3,0.1-0.4,0L8.6,8.8c-0.1-0.1-0.1-0.3,0-0.4c0.1-0.1,0.3-0.1,0.4,0l0.4,0.4
			C9.6,8.9,9.6,9,9.5,9.2z M7.4,8.4c-0.7,0-1.3-0.6-1.3-1.3c0-0.7,0.6-1.3,1.3-1.3c0.7,0,1.3,0.6,1.3,1.3C8.7,7.8,8.1,8.4,7.4,8.4z
			 M7.7,9.8c0,0.1-0.1,0.3-0.3,0.3c-0.2,0-0.3-0.1-0.3-0.3V9.2c0-0.1,0.1-0.3,0.3-0.3c0.2,0,0.3,0.1,0.3,0.3V9.8z M6.1,8.7L5.7,9.2
			c-0.1,0.1-0.3,0.1-0.4,0C5.2,9,5.2,8.9,5.3,8.8l0.4-0.4c0.1-0.1,0.3-0.1,0.4,0C6.2,8.5,6.2,8.6,6.1,8.7z M4.7,7.4
			c-0.1,0-0.3-0.1-0.3-0.3c0-0.2,0.1-0.3,0.3-0.3h0.6c0.1,0,0.3,0.1,0.3,0.3c0,0.2-0.1,0.3-0.3,0.3H4.7z M8.7,4.1
			C8.3,3.9,7.8,3.8,7.4,3.8c-0.5,0-0.9,0.1-1.3,0.3c-1.2,0.5-2,1.7-2,3c0,0.7,0.2,1.4,0.7,2c0.5,0.7,1.3,1.1,2.2,1.3
			c0.1,0,0.3,0,0.5,0c0.2,0,0.3,0,0.5,0c0.9-0.1,1.7-0.6,2.2-1.3c0.4-0.6,0.7-1.2,0.7-2C10.7,5.7,9.8,4.6,8.7,4.1z"/>
	</defs>
	<clipPath id="SVGID_14_">
		<use xlink:href="#SVGID_13_"  style="overflow:visible;"/>
	</clipPath>
	<rect x="-0.9" y="-1.2" fill="#ffffff" class="st6" width="16.6" height="16.6"/>
</g>
</svg>
