<?xml version="1.0" encoding="utf-8"?>
<!-- Generator: Adobe Illustrator 23.0.1, SVG Export Plug-In . SVG Version: 6.00 Build 0)  -->
<svg version="1.1" id="Layer_1" xmlns="http://www.w3.org/2000/svg" xmlns:xlink="http://www.w3.org/1999/xlink" x="0px" y="0px"
	 viewBox="0 0 66 66" style="enable-background:new 0 0 66 66;" xml:space="preserve">
<style type="text/css">
	.st0{clip-path:url(#SVGID_2_);}
</style>
<g>
	<defs>
		<path id="SVGID_1_" d="M50.7,30v6v4.3v6v4.3h-4.3h-6H36h-6h-4.3h-6h-4.3v-4.3v-6V36v-6v-4.3v-6v-4.3h4.3h6H30h6h4.3h6h4.3v4.3v6
			V30z M65.1,25.7v-6h-8.4V9.3H46.3V0.9h-6v8.4H36V0.9h-6v8.4h-4.3V0.9h-6v8.4H9.4v10.3H0.9v6h8.4V30H0.9v6h8.4v4.3H0.9v6h8.4v10.3
			h10.3v8.4h6v-8.4H30v8.4h6v-8.4h4.3v8.4h6v-8.4h10.3V46.3h8.4v-6h-8.4V36h8.4v-6h-8.4v-4.3H65.1z"/>
	</defs>
	<clipPath id="SVGID_2_">
		<use xlink:href="#SVGID_1_"  style="overflow:visible;"/>
	</clipPath>
	<rect fill="#ffffff" x="-4.1" y="-4.1" class="st0" width="74.1" height="74.1"/>
</g>
</svg>
