<svg id="Layer_1" data-name="Layer 1" xmlns="http://www.w3.org/2000/svg" xmlns:xlink="http://www.w3.org/1999/xlink" viewBox="0 0 77.3 100"><defs><style>.cls-1{fill:none;}.cls-2{clip-path:url(#clip-path);}</style><clipPath id="clip-path" transform="translate(4.65 5)"><path class="cls-1" d="M37.78,48.43l-1-4.26a24.74,24.74,0,0,1,9,.3A1.94,1.94,0,0,0,47.48,44,1.9,1.9,0,0,0,48,42.19L43.42,21.87a52.88,52.88,0,0,0,14.7-4.4l5.44,23.91C60,43.36,48.75,49,37.78,48.43ZM34.37,40.7a45.55,45.55,0,0,0-16.92,7.66L12.69,21.1c9.56-4.86,21.65-4.65,25.65-4.42l5.3,23.57A29.81,29.81,0,0,0,34.37,40.7ZM7.77,11a3.6,3.6,0,1,1,3.6-3.6A3.6,3.6,0,0,1,7.77,11ZM61.29,14.2a1.89,1.89,0,0,0-1.09-1.32,1.93,1.93,0,0,0-1.72.08,46.82,46.82,0,0,1-15.9,5.15l-.83-3.65A1.9,1.9,0,0,0,40.1,13c-.67-.08-15.7-1.61-28.1,4.19l-.58-3.29a7.42,7.42,0,1,0-3.71,1L20.58,88.42A1.91,1.91,0,0,0,22.46,90a1.84,1.84,0,0,0,.33,0,1.9,1.9,0,0,0,1.55-2.21L18.18,52.49a1.83,1.83,0,0,0,.53-.29A43.56,43.56,0,0,1,33,45l1.37,5.72a1.91,1.91,0,0,0,1.67,1.45,32.49,32.49,0,0,0,3.26.16c13.78,0,26.83-8,27.42-8.33a1.92,1.92,0,0,0,.86-2.05Z"/></clipPath></defs><title>1_about</title><g class="cls-2"><rect fill="#61a2de" width="77.3" height="100"/></g></svg>