<svg id="Layer_1" data-name="Layer 1" xmlns="http://www.w3.org/2000/svg" xmlns:xlink="http://www.w3.org/1999/xlink" viewBox="0 0 88.3 88.37"><defs><style>.cls-1{fill:none;}.cls-2{clip-path:url(#clip-path);}.cls-3{clip-path:url(#clip-path-2);}.cls-4{clip-path:url(#clip-path-3);}</style><clipPath id="clip-path" transform="translate(3.37 5.37)"><path class="cls-1" d="M66.94,74.73H23.32a13,13,0,0,0,0-19.59H66.94a9.8,9.8,0,0,1,0,19.59ZM68.57,52V50.24a1.63,1.63,0,1,0-3.26,0v1.64H14.69a1.63,1.63,0,0,0,0,3.26,9.8,9.8,0,1,1-9.79,9.8V7.81A4.65,4.65,0,0,1,9.8,2.9H60.4a4.65,4.65,0,0,1,4.91,4.9v3.26a1.63,1.63,0,1,0,3.26,0V7.8A7.87,7.87,0,0,0,60.41-.37H9.8A7.87,7.87,0,0,0,1.63,7.8V64.94A13.08,13.08,0,0,0,12.22,77.76a1.55,1.55,0,0,0,.84.24H66.94a13.06,13.06,0,0,0,1.63-26Z"/></clipPath><clipPath id="clip-path-2" transform="translate(3.37 5.37)"><path class="cls-1" d="M29.39,42.08H22.86V38.82h6.53ZM31,35.55H22.86a3.26,3.26,0,0,0-3.27,3.27v3.26a3.26,3.26,0,0,0,3.27,3.27H68.57c.38,0,.85,0,8.81-3.4a1.64,1.64,0,0,0,1-1.5,1.62,1.62,0,0,0-1-1.5c-8-3.4-8.43-3.4-8.81-3.4h-31a1.64,1.64,0,0,0,0,3.27H68.39c.54.16,2.18.82,4.13,1.63-2,.81-3.59,1.47-4.13,1.63H32.65v-4.9A1.63,1.63,0,0,0,31,35.55Z"/></clipPath><clipPath id="clip-path-3" transform="translate(3.37 5.37)"><path class="cls-1" d="M75.1,29H66.94v-4.9a1.64,1.64,0,0,0-3.27,0V29H53.88v-4.9a1.64,1.64,0,0,0-3.27,0V29H40.82v-4.9a1.64,1.64,0,0,0-3.27,0V29H29.39v-9.8H75.1Zm-49-9.8V29a3.27,3.27,0,0,0,3.27,3.27H75.1A3.27,3.27,0,0,0,78.37,29v-9.8A3.26,3.26,0,0,0,75.1,16H29.39A3.26,3.26,0,0,0,26.12,19.22Z"/></clipPath></defs><title>2_about</title><g class="cls-2"><rect fill="#61a2de" width="88.3" height="88.37"/></g><g class="cls-3"><rect fill="#61a2de" x="17.96" y="35.92" width="68.78" height="19.8"/></g><g class="cls-4"><rect fill="#61a2de" x="24.5" y="16.33" width="62.24" height="26.33"/></g></svg>