<svg id="Layer_1" data-name="Layer 1" xmlns="http://www.w3.org/2000/svg" xmlns:xlink="http://www.w3.org/1999/xlink" viewBox="0 0 99.85 83.31"><defs><style>.cls-1,.cls-2{fill:none;}.cls-2{clip-rule:evenodd;}.cls-3{clip-path:url(#clip-path);}.cls-4{clip-path:url(#clip-path-2);}</style><clipPath id="clip-path" transform="translate(5 4.06)"><path class="cls-1" d="M86.25,52.12l-6,2.26V15.94l6,2.25Zm-27,10.69H42.94V59.06H59.25Zm10.13,7.5H32.62V66.56H69.38ZM28.88,49.69H76.5v5.43H28.88ZM17.25,51.38V19.12a4,4,0,0,1,3.94-3.93h3.93V55.31H21.19A4.09,4.09,0,0,1,17.25,51.38ZM12,44.25V26.06h1.5V44.25ZM76.5,15v4.5H28.88V15ZM46.31,4.69h9.75l2.82,3v3.75H46.31ZM28.88,40.88H76.5v5.06H28.88ZM76.5,28.5H28.88V23.44H76.5ZM28.88,32.25H76.5v5.06H28.88Zm60-17.06-9.76-3.75c-.18,0-.56-.19-.74-.19H62.62V6.94a1.71,1.71,0,0,0-.56-1.32L58.31,1.5A2,2,0,0,0,57,.94H44.62a1.77,1.77,0,0,0-1.87,1.87v8.44H21.19a7.6,7.6,0,0,0-7.69,7.69v3.37H11.62a3.36,3.36,0,0,0-3.37,3.38v7.69H1.88a1.87,1.87,0,1,0,0,3.74H8.25v7.69a3.36,3.36,0,0,0,3.37,3.38H13.5v3.37a7.6,7.6,0,0,0,7.69,7.69h18V63H30.75a1.77,1.77,0,0,0-1.87,1.88v7.5a1.76,1.76,0,0,0,1.87,1.87h40.5a1.76,1.76,0,0,0,1.87-1.87v-7.5A1.77,1.77,0,0,0,71.25,63H62.81V59.25H78.19a1.41,1.41,0,0,0,.75-.19l9.75-3.75a1.63,1.63,0,0,0,1.12-1.69V16.88A1.5,1.5,0,0,0,88.88,15.19Z"/></clipPath><clipPath id="clip-path-2" transform="translate(5 4.06)"><path class="cls-2" d="M54.38,6H50.25a1.77,1.77,0,0,0-1.87,1.88,1.76,1.76,0,0,0,1.87,1.87h4.13a1.77,1.77,0,0,0,1.87-1.87A1.77,1.77,0,0,0,54.38,6Z"/></clipPath></defs><title>4_about</title><g class="cls-3"><rect fill="#61a2de" width="99.85" height="83.31"/></g><g class="cls-4"><rect fill="#61a2de" x="48.38" y="5.06" width="17.88" height="13.75"/></g></svg>