<svg id="Layer_1" data-name="Layer 1" xmlns="http://www.w3.org/2000/svg" xmlns:xlink="http://www.w3.org/1999/xlink" viewBox="0 0 47 47"><defs><style>.cls-1{fill:none;clip-rule:evenodd;}.cls-2{clip-path:url(#clip-path);}</style><clipPath id="clip-path" transform="translate(4.55 4.55)"><path class="cls-1" d="M33.2,1.2,19,15.5,4.8,1.2a2.42,2.42,0,0,0-3.5,0,2.42,2.42,0,0,0,0,3.5L15.5,19,1.2,33.2a2.42,2.42,0,0,0,0,3.5,2.42,2.42,0,0,0,3.5,0L19,22.5,33.2,36.7a2.42,2.42,0,0,0,3.5,0,2.5,2.5,0,0,0,0-3.5L22.5,19,36.7,4.8a2.42,2.42,0,0,0,0-3.5A2.51,2.51,0,0,0,33.2,1.2Z"/></clipPath></defs><title>close</title><g class="cls-2"><rect fill="#4c4e56" width="47" height="47"/></g></svg>