<svg id="Layer_1" data-name="Layer 1" xmlns="http://www.w3.org/2000/svg" viewBox="0 0 86.4 98.24"><defs><style>.cls-1{fill:none;}</style></defs><title>3_fetures</title><path class="cls-1" d="M51.7,24.54a131.6,131.6,0,0,0,13.48-1.48l-.38-3.15A18.81,18.81,0,0,0,51.7,4.21Z" transform="translate(-0.8 1.04)"/><path class="cls-1" d="M50,36.8A16.11,16.11,0,0,0,61.8,31.67v0h0a16.2,16.2,0,0,0,2.73-4,137.89,137.89,0,0,1-20.63,1.57,138.21,138.21,0,0,1-20.57-1.56,16.13,16.13,0,0,0,2.75,4h.08v.08A16.23,16.23,0,0,0,38,36.8Z" transform="translate(-0.8 1.04)"/><path class="cls-1" d="M22.74,23.07a134,134,0,0,0,21.2,1.71c1.12,0,2.24,0,3.36-.05V3.42a19.06,19.06,0,0,0-3.11.05H43.7a18.77,18.77,0,0,0-3.67,0V18a2.2,2.2,0,0,1-4.4,0V4.43A18.79,18.79,0,0,0,23.14,19.86Z" transform="translate(-0.8 1.04)"/><path class="cls-1" d="M61.9,62.22,45.87,88a2.21,2.21,0,0,1-3.73,0L25.81,62.23A21.8,21.8,0,0,0,5.2,84v8.8H82.8V84A21.8,21.8,0,0,0,61.9,62.22Z" transform="translate(-0.8 1.04)"/><path class="cls-1" d="M61.8,38.58V37.46A20.42,20.42,0,0,1,50,41.2H38a20.64,20.64,0,0,1-11.8-3.72v1.1a17.8,17.8,0,1,0,35.6,0Z" transform="translate(-0.8 1.04)"/><path fill="#61a2de" d="M61,57.8h-.31a2.19,2.19,0,0,0-1.87,1L46.14,79.2V71.82a2.2,2.2,0,0,0-4.4,0v7.31L28.86,58.82a2.23,2.23,0,0,0-1.86-1A26.2,26.2,0,0,0,.8,84V95A2.19,2.19,0,0,0,3,97.2H85A2.19,2.19,0,0,0,87.2,95V84A26.2,26.2,0,0,0,61,57.8Zm21.8,35H5.2V84A21.8,21.8,0,0,1,25.81,62.23L42.14,88a2.21,2.21,0,0,0,3.73,0l16-25.74A21.8,21.8,0,0,1,82.8,84Z" transform="translate(-0.8 1.04)"/><circle fill="#61a2de" cx="43.4" cy="66.24" r="2.2"/><path fill="#61a2de" d="M66.2,38.58V33.29a20.46,20.46,0,0,0,3.61-7.19l.12-.42-.77-6.3A23.19,23.19,0,0,0,43.94-.93,23.2,23.2,0,0,0,18.77,19.32L18,25.68l.12.43a20.71,20.71,0,0,0,3.7,7.24v5.23a22.2,22.2,0,0,0,44.4,0Zm-40-6.87v-.08h-.08a16.13,16.13,0,0,1-2.75-4,138.21,138.21,0,0,0,20.57,1.56,137.89,137.89,0,0,0,20.63-1.57,16.2,16.2,0,0,1-2.73,4h0v0A16.11,16.11,0,0,1,50,36.8H38A16.23,16.23,0,0,1,26.2,31.71Zm38.6-11.8.38,3.15A131.6,131.6,0,0,1,51.7,24.54V4.21A18.81,18.81,0,0,1,64.8,19.91ZM35.63,4.43V18A2.2,2.2,0,0,0,40,18V3.45a18.77,18.77,0,0,1,3.67,0h.49a19.06,19.06,0,0,1,3.11-.05V24.73c-1.12,0-2.24.05-3.36.05a134,134,0,0,1-21.2-1.71l.4-3.21A18.79,18.79,0,0,1,35.63,4.43ZM26.2,38.58v-1.1A20.64,20.64,0,0,0,38,41.2H50A20.42,20.42,0,0,0,61.8,37.46v1.12a17.8,17.8,0,1,1-35.6,0Z" transform="translate(-0.8 1.04)"/></svg>