<?xml version="1.0" encoding="utf-8"?>
<!-- Generator: Adobe Illustrator 23.0.1, SVG Export Plug-In . SVG Version: 6.00 Build 0)  -->
<svg version="1.1" id="Layer_1" xmlns="http://www.w3.org/2000/svg" xmlns:xlink="http://www.w3.org/1999/xlink" x="0px" y="0px"
	 viewBox="0 0 69 96" style="enable-background:new 0 0 69 96;" xml:space="preserve">
<style type="text/css">
	.st0{clip-path:url(#SVGID_2_);}
	.st1{clip-path:url(#SVGID_4_);}
	.st2{clip-path:url(#SVGID_6_);}
</style>
<g>
	<defs>
		<path id="SVGID_1_" d="M34.3,64.1c-0.4,1.2,0.2,2.5,1.4,2.9l2.8,1c2.6,0.9,5.5,0.3,7.4-1.7l3.7-3.8c0.3-0.3,0.8-0.6,1.2-0.7
			l5.1-1.2c2.7-0.6,4.7-2.7,5.3-5.4l1.1-5.2c0.1-0.5,0.3-0.9,0.7-1.2l3.7-3.8c1.9-2,2.5-4.9,1.5-7.4l-1.9-4.9
			c-0.2-0.4-0.2-0.9-0.1-1.4l1.1-5.2c0.6-2.7-0.5-5.5-2.7-7.1L60.2,16c-0.4-0.3-0.7-0.7-0.9-1.1L57.4,10c-1-2.6-3.4-4.3-6.1-4.5
			L46,5.2c-0.5,0-0.9-0.2-1.3-0.5l-4.3-3.1c-2.2-1.6-5.2-1.8-7.6-0.4l-4.6,2.6C27.9,4,27.4,4.1,27,4.1l-5.3-0.3
			c-2.7-0.2-5.3,1.3-6.6,3.7l-2.5,4.7c-0.2,0.4-0.6,0.8-1,1l-4.6,2.6c-2.4,1.3-3.8,4-3.5,6.7L4,27.7c0,0.5-0.1,1-0.3,1.4l-2.5,4.7
			c-1.3,2.4-1,5.4,0.6,7.6l3.2,4.2c0.3,0.4,0.5,0.8,0.5,1.3L6,52c0.2,2.7,2,5.1,4.6,6l5.3,1.9c0.2,0.1,0.3,0.2,0.5,0.3l1,1.4
			c0.1,0.1,0.1,0.3,0,0.5l-2.1,4.5L7.1,83.6c-0.7,1.5-0.6,3.3,0.3,4.7c0.9,1.4,2.5,2.2,4.2,2.1l4.5-0.3l2.3,3.4
			c1,1.4,2.6,2.3,4.4,2.2c1.8-0.1,3.3-1.1,4.1-2.7l5.3-11l1.7-3.6c1.4,3.6,3.3,8,3.4,8.3l3.1,6.4c0.8,1.6,2.2,2.6,3.9,2.7
			c0.1,0,0.3,0,0.4,0c1.6,0,3-0.8,3.9-2.1l2.1-3.1c0.2-0.3,0.5-0.5,0.9-0.4l3.5,0.2c1.7,0.1,3.5-0.6,4.5-2c1-1.5,1.2-3.3,0.4-4.9
			L53.5,70c-0.5-1.1-1.8-1.7-3-1.2c-1.2,0.5-1.7,1.9-1.2,3.1L56,85.4c0,0,0.1,0.2,0,0.3c-0.1,0.1-0.2,0.1-0.3,0.1l-3.7-0.2
			C50,85.5,48.1,86.4,47,88l-2.1,3.1c0,0-0.1,0.1-0.2,0.1c-0.2,0-0.2-0.1-0.2-0.1l-3-6.2C39.9,81.2,37,74,36.5,72.5
			c-0.3-1-1.3-1.7-2.3-1.7c-1.1-0.1-2,0.5-2.5,1.5L28.1,80l-5.3,11c0,0-0.1,0.2-0.3,0.2c-0.2,0-0.2-0.1-0.3-0.1l-2.7-3.9
			c-0.7-1.1-2-1.6-3.3-1.6l-5,0.3c0,0-0.1,0-0.1-0.1c-0.1-0.1,0-0.1,0-0.2l8.3-17.1l2.1-4.5c0.8-1.6,0.6-3.5-0.4-5l-1-1.5L20,57.5
			c-0.7-0.9-1.5-1.5-2.6-1.9l-5.3-1.9c-0.9-0.3-1.6-1.2-1.6-2.1l-0.4-5.2C10,45,9.5,43.7,8.6,42.7l-3.2-4.2
			c-0.6-0.8-0.7-1.8-0.2-2.7l2.5-4.7c0.6-1.2,0.9-2.5,0.8-3.9L8,22c-0.1-1,0.4-1.9,1.3-2.4l4.6-2.6c1.2-0.7,2.1-1.6,2.8-2.8l2.5-4.7
			c0.5-0.9,1.4-1.4,2.3-1.3l5.3,0.3c1.3,0.1,2.7-0.2,3.9-0.9l4.6-2.6C36,4.6,37,4.7,37.8,5.3l4.3,3.1c1.1,0.8,2.4,1.3,3.7,1.3L51,10
			c1,0.1,1.8,0.7,2.2,1.6l1.9,4.9c0.5,1.3,1.3,2.3,2.4,3.1l4.3,3.1c0.8,0.6,1.2,1.6,1,2.5l-1.1,5.2c-0.3,1.3-0.2,2.7,0.3,3.9
			l1.9,4.9c0.4,0.9,0.1,1.9-0.5,2.6l-3.7,3.8c-0.9,1-1.6,2.2-1.8,3.5l-1.1,5.2c-0.2,1-0.9,1.7-1.9,1.9l-5.1,1.2
			c-1.3,0.3-2.5,1-3.4,1.9l-3.7,3.8c-0.7,0.7-1.7,0.9-2.6,0.6l-2.8-1C36.1,62.3,34.8,62.9,34.3,64.1z"/>
	</defs>
	<clipPath id="SVGID_2_">
		<use xlink:href="#SVGID_1_"  style="overflow:visible;"/>
	</clipPath>
	<rect fill="#61a2de" x="-4.6" y="-4.7" class="st0" width="78.2" height="105.4"/>
</g>
<g>
	<defs>
		<circle id="SVGID_3_" cx="30.1" cy="61.9" r="2.3"/>
	</defs>
	<clipPath id="SVGID_4_">
		<use xlink:href="#SVGID_3_"  style="overflow:visible;"/>
	</clipPath>
	<rect fill="#61a2de" x="22.8" y="54.6" class="st1" width="14.6" height="14.6"/>
</g>
<g>
	<defs>
		<path id="SVGID_5_" d="M26.3,49.8c-1.3,0.5-2.7-0.5-2.7-1.9l0.3-9.3l-5.7-7.3c-0.9-1.1-0.3-2.8,1-3.1l8.9-2.6l5.2-7.7
			c0.8-1.2,2.5-1.2,3.3,0l5.2,7.7l8.9,2.6c1.4,0.4,1.9,2,1,3.1l-5.7,7.3l0.3,9.3c0,1.4-1.3,2.4-2.7,1.9L35,46.7L26.3,49.8z
			 M34.3,42.7c0.4-0.2,0.9-0.2,1.4,0l6.6,2.4L42.1,38c0-0.5,0.1-0.9,0.4-1.3l4.3-5.6l-6.8-2c-0.4-0.1-0.8-0.4-1.1-0.8l-4-5.8l-4,5.8
			c-0.3,0.4-0.6,0.7-1.1,0.8l-6.8,2l4.3,5.6c0.3,0.4,0.4,0.8,0.4,1.3l-0.2,7.1L34.3,42.7z"/>
	</defs>
	<clipPath id="SVGID_6_">
		<use xlink:href="#SVGID_5_"  style="overflow:visible;"/>
	</clipPath>
	<rect fill="#61a2de" x="12.8" y="12" class="st2" width="44.4" height="42.9"/>
</g>
</svg>
