<svg id="Layer_1" data-name="Layer 1" xmlns="http://www.w3.org/2000/svg" xmlns:xlink="http://www.w3.org/1999/xlink" viewBox="0 0 94.69 102"><defs><style>.cls-1{fill:none;}.cls-2{clip-path:url(#clip-path);}.cls-3{clip-path:url(#clip-path-2);}</style><clipPath id="clip-path" transform="translate(5 5)"><path class="cls-1" d="M84.69,44.17V89.56A2.44,2.44,0,0,1,82.25,92H2.44A2.44,2.44,0,0,1,0,89.56V44.17a2.44,2.44,0,0,1,2.44-2.44H9a2.44,2.44,0,0,1,0,4.88H4.87V87.13H79.81V46.61H61.35a2.44,2.44,0,0,1,0-4.88h20.9A2.44,2.44,0,0,1,84.69,44.17ZM46.24,13.77l-1,3.17L31.92,59.3A35.39,35.39,0,0,1,19.56,77.21a35.42,35.42,0,0,1-.35-21.72L33.57,9.63a6.64,6.64,0,0,1,6.34-4.7A6.23,6.23,0,0,1,42,5.25,6.81,6.81,0,0,1,46.24,13.77Zm3.66,4.6,1-3.19A11.7,11.7,0,0,0,43.49.56,11.52,11.52,0,0,0,28.94,8.15L14.56,54A40.32,40.32,0,0,0,15,78.79a4.8,4.8,0,0,0,7.46,2.32A40.25,40.25,0,0,0,36.58,60.72l11.2-35.6a2.76,2.76,0,0,0,.47.2l5.23,1.6L47.45,47a2.44,2.44,0,0,0,.42,2.54,2.47,2.47,0,0,0,2.46.75,2.43,2.43,0,0,0,1.76-1.88l6-20.09a4.87,4.87,0,0,0-3.29-6.12l-5.19-1.52a2.07,2.07,0,0,0-.42-.08l.68-2.16Z"/></clipPath><clipPath id="clip-path-2" transform="translate(5 5)"><path class="cls-1" d="M67.51,57.24A2.2,2.2,0,1,1,71,59.86l-14.82,20a2.2,2.2,0,0,1-3.15.41l-9.18-7.4a2.2,2.2,0,0,1,2.76-3.43l7.4,6Z"/></clipPath></defs><title>4_fetures</title><g class="cls-2"><rect fill="#61a2de" width="94.69" height="102"/></g><g class="cls-3"><rect fill="#61a2de" x="43.07" y="56.35" width="38.41" height="34.4"/></g></svg>