<?xml version="1.0" encoding="utf-8"?>
<!-- Generator: Adobe Illustrator 23.0.1, SVG Export Plug-In . SVG Version: 6.00 Build 0)  -->
<svg version="1.1" id="Layer_1" xmlns="http://www.w3.org/2000/svg" xmlns:xlink="http://www.w3.org/1999/xlink" x="0px" y="0px"
	 viewBox="0 0 98 96" style="enable-background:new 0 0 98 96;" xml:space="preserve">
<style type="text/css">
	.st0{clip-path:url(#SVGID_2_);}
	.st1{clip-path:url(#SVGID_4_);}
	.st2{clip-path:url(#SVGID_6_);}
	.st3{clip-path:url(#SVGID_8_);}
	.st4{clip-path:url(#SVGID_10_);}
	.st5{clip-path:url(#SVGID_12_);}
	.st6{clip-path:url(#SVGID_14_);}
</style>
<g>
	<defs>
		<path id="SVGID_1_" d="M86.9,0.1L22.7,0.2C16.8,0.2,12,5,12,10.9v59.4H2.5c-1.4,0-2.5,1.1-2.5,2.5v6.2C0,85,4.8,89.8,10.7,89.8
			h48.7c1.4,0,2.5-1.1,2.5-2.5c0-1.4-1.1-2.5-2.5-2.5H10.7c-3.2,0-5.7-2.6-5.7-5.7v-3.7h54.5c1.4,0,2.5-1.1,2.5-2.5
			c0-1.4-1.1-2.5-2.5-2.5H17V10.9c0-3.2,2.6-5.7,5.7-5.7l54.9-0.1c-1.2,1.8-1.8,3.9-1.8,6.1v13.6c0,1.4,1.1,2.5,2.5,2.5
			c1.4,0,2.5-1.1,2.5-2.5V11.2c0-3.4,2.7-6.1,6.1-6.1c3.4,0,6.1,2.8,6.1,6.1v3.3h-5.5c-1.4,0-2.5,1.1-2.5,2.5s1.1,2.5,2.5,2.5h8
			c1.4,0,2.5-1.1,2.5-2.5v-5.8C98,5,93,0.1,86.9,0.1z"/>
	</defs>
	<clipPath id="SVGID_2_">
		<use xlink:href="#SVGID_1_"  style="overflow:visible;"/>
	</clipPath>
	<rect fill="#61a2de" x="-5" y="-4.9" class="st0" width="108" height="99.8"/>
</g>
<g>
	<defs>
		<path id="SVGID_3_" d="M91.6,55.3c-0.2,1-0.9,1.8-1.9,2.2c-2.4,1-4.2,3.2-4.8,5.8c-0.2,0.9-0.9,1.7-1.7,2.1c-1,0.5-2.2,0.5-3.2,0
			c-2.4-1.2-5.2-1.2-7.5,0c-1,0.5-2.2,0.5-3.2,0c-0.9-0.4-1.5-1.2-1.7-2.1c-0.6-2.6-2.4-4.7-4.8-5.8c-0.9-0.4-1.6-1.2-1.9-2.2
			c-0.2-0.9,0-1.9,0.7-2.6c1.8-2,2.4-4.7,1.7-7.3c-0.2-0.9,0-1.8,0.5-2.5c0.7-0.8,1.7-1.3,2.8-1.3c2.7,0.1,5.2-1.1,6.8-3.1
			c0.7-0.8,1.7-1.3,2.7-1.3s2.1,0.5,2.7,1.3c1.7,2.1,4.2,3.2,6.8,3.1c1.1,0,2.1,0.4,2.8,1.3c0.6,0.7,0.8,1.7,0.5,2.5
			c-0.7,2.6,0,5.3,1.7,7.3C91.5,53.5,91.8,54.4,91.6,55.3L91.6,55.3z M94,46.8c0.6-2.4,0.1-5-1.4-6.9c-1.6-2.1-4.2-3.3-6.9-3.2
			c-1.1,0-2.1-0.4-2.8-1.3c-1.6-2-4.1-3.2-6.6-3.2c-2.6,0-5,1.2-6.6,3.2c-0.7,0.8-1.7,1.3-2.8,1.3c-2.7-0.1-5.2,1.1-6.9,3.2
			c-1.6,1.9-2.1,4.5-1.4,6.9c0.2,0.9,0,2-0.7,2.7c-1.7,1.9-2.4,4.5-1.8,7c0.6,2.6,2.4,4.7,4.8,5.7c1,0.4,1.7,1.2,1.9,2.2
			c0.5,2.4,2.2,4.5,4.4,5.6c2.4,1.2,5.2,1.2,7.6,0c1-0.5,2.2-0.5,3.2,0c2.4,1.2,5.2,1.2,7.6,0c2.3-1.1,3.9-3.1,4.4-5.6
			c0.2-1,0.9-1.8,1.9-2.2c2.4-1,4.2-3.1,4.8-5.7c0.6-2.5-0.1-5.1-1.8-7C94,48.7,93.8,47.7,94,46.8z"/>
	</defs>
	<clipPath id="SVGID_4_">
		<use xlink:href="#SVGID_3_"  style="overflow:visible;"/>
	</clipPath>
	<rect fill="#61a2de" x="50.8" y="27.2" class="st1" width="50.9" height="48.6"/>
</g>
<g>
	<defs>
		<path id="SVGID_5_" d="M69.4,75c-1.4,0-2.5,1.1-2.5,2.5v15.9c0,0.9,0.5,1.8,1.4,2.2c0.8,0.4,1.9,0.3,2.6-0.2l5.3-4.1l5.3,4.1
			c0.8,0.6,1.8,0.7,2.6,0.2c0.8-0.4,1.4-1.3,1.4-2.2V77.6c0-1.4-1.1-2.5-2.5-2.5c-1.4,0-2.5,1.1-2.5,2.5v10.7l-2.8-2.2
			c-0.9-0.7-2.2-0.7-3.1,0l-2.8,2.2V77.5C71.9,76.1,70.8,75,69.4,75z"/>
	</defs>
	<clipPath id="SVGID_6_">
		<use xlink:href="#SVGID_5_"  style="overflow:visible;"/>
	</clipPath>
	<rect fill="#61a2de" x="61.9" y="70" class="st2" width="28.7" height="31"/>
</g>
<g>
	<defs>
		<path id="SVGID_7_" d="M28.8,21.7h29.7c1.4,0,2.5-1.1,2.5-2.5c0-1.4-1.1-2.5-2.5-2.5H28.8c-1.4,0-2.5,1.1-2.5,2.5
			C26.3,20.6,27.4,21.7,28.8,21.7z"/>
	</defs>
	<clipPath id="SVGID_8_">
		<use xlink:href="#SVGID_7_"  style="overflow:visible;"/>
	</clipPath>
	<rect fill="#61a2de" x="21.3" y="11.7" class="st3" width="44.7" height="15"/>
</g>
<g>
	<defs>
		<path id="SVGID_9_" d="M56,31.8c0-1.4-1.1-2.5-2.5-2.5H37c-1.4,0-2.5,1.1-2.5,2.5c0,1.4,1.1,2.5,2.5,2.5h16.5
			C54.9,34.3,56,33.2,56,31.8z"/>
	</defs>
	<clipPath id="SVGID_10_">
		<use xlink:href="#SVGID_9_"  style="overflow:visible;"/>
	</clipPath>
	<rect fill="#61a2de" x="29.5" y="24.3" class="st4" width="31.5" height="15"/>
</g>
<g>
	<defs>
		<path id="SVGID_11_" d="M46.9,41.9H28.8c-1.4,0-2.5,1.1-2.5,2.5c0,1.4,1.1,2.5,2.5,2.5h18.1c1.4,0,2.5-1.1,2.5-2.5
			C49.4,43.1,48.3,41.9,46.9,41.9z"/>
	</defs>
	<clipPath id="SVGID_12_">
		<use xlink:href="#SVGID_11_"  style="overflow:visible;"/>
	</clipPath>
	<rect fill="#61a2de" x="21.3" y="36.9" class="st5" width="33.1" height="15"/>
</g>
<g>
	<defs>
		<path id="SVGID_13_" d="M46.9,54.5H37c-1.4,0-2.5,1.1-2.5,2.5s1.1,2.5,2.5,2.5h9.8c1.4,0,2.5-1.1,2.5-2.5S48.2,54.5,46.9,54.5
			L46.9,54.5z"/>
	</defs>
	<clipPath id="SVGID_14_">
		<use xlink:href="#SVGID_13_"  style="overflow:visible;"/>
	</clipPath>
	<rect fill="#61a2de" x="29.5" y="49.5" class="st6" width="24.8" height="15"/>
</g>
</svg>
