<?xml version="1.0" encoding="utf-8"?>
<!-- Generator: Adobe Illustrator 23.0.1, SVG Export Plug-In . SVG Version: 6.00 Build 0)  -->
<svg version="1.1" id="Layer_1" xmlns="http://www.w3.org/2000/svg" xmlns:xlink="http://www.w3.org/1999/xlink" x="0px" y="0px"
	 viewBox="0 0 76 96" style="enable-background:new 0 0 76 96;" xml:space="preserve">
<style type="text/css">
	.st0{clip-path:url(#SVGID_2_);}
</style>
<g>
	<defs>
		<path id="SVGID_1_" d="M50.9,30.9c-0.2-2.7-1-4.9-2.6-6.7c-1.6-1.9-3.8-3.1-6.5-3.6V16c0-0.6-0.5-1-1-1h-3.7c-0.6,0-1,0.5-1,1v4.5
			c-2.8,0.4-5.2,1.5-6.9,3.2c-1.9,1.9-2.9,4.3-2.9,7.1c0,3.2,0.9,5.6,2.8,7.3c1.8,1.6,4.8,3.3,8.8,4.9c1.7,0.7,2.8,1.4,3.5,2.2
			c0.6,0.7,1,1.8,1,3.1c0,1.2-0.3,2.1-0.9,2.8c-0.6,0.7-1.6,1.1-2.8,1.1c-1.5,0-2.7-0.5-3.6-1.4c-0.8-0.8-1.2-1.9-1.3-3.5
			c-0.1-0.6-0.6-1.1-1.2-1.1l-6.1,0.1c-0.7,0-1.2,0.6-1.2,1.2c0.2,3.3,1.2,5.8,3.2,7.5c2.1,1.9,4.7,3.1,7.9,3.4v4.2c0,0.6,0.5,1,1,1
			h3.7c0.6,0,1-0.5,1-1v-4.3c2.5-0.5,4.6-1.5,6.2-3c1.9-1.8,2.8-4.2,2.8-7.2c0-3.1-0.9-5.5-2.8-7.2c-1.9-1.7-4.8-3.4-8.7-5.1
			c-1.7-0.8-2.9-1.5-3.5-2.2c-0.6-0.7-0.9-1.7-0.9-2.9c0-1.2,0.3-2.1,0.9-2.9c0.6-0.8,1.5-1.1,2.7-1.1s2.2,0.5,2.9,1.4
			c0.6,0.7,0.9,1.8,1,3.1c0.1,0.6,0.6,1.1,1.2,1l6.1-0.1C50.4,32.1,51,31.6,50.9,30.9z M73.3,50.9l-1.7,1c-1.9,1-2.9,3.2-2.5,5.3
			l0.4,1.9c0.5,3-1.6,5.8-4.7,5.9l-2,0.1c-2.2,0.1-4,1.6-4.6,3.7l-0.5,1.9c-0.8,2.9-4,4.5-6.8,3.3l-1.8-0.8c-2-0.8-4.3-0.3-5.7,1.4
			l-1.3,1.5c-2,2.3-5.5,2.3-7.5,0.1l-1.3-1.5c-1.4-1.6-3.8-2.1-5.7-1.3l-1.8,0.8c-2.8,1.2-6-0.3-6.8-3.2l-0.6-1.9
			c-0.6-2.1-2.5-3.5-4.6-3.6l-2-0.1c-3-0.1-5.3-2.9-4.7-5.9l0.3-2c0.4-2.1-0.7-4.3-2.6-5.3l-1.7-0.9c-2.7-1.4-3.5-4.9-1.7-7.3
			l1.1-1.6c1.2-1.8,1.2-4.1,0-5.9L1.1,35c-1.8-2.4-1-5.9,1.6-7.4l1.7-1c1.9-1,2.9-3.2,2.5-5.3l-0.4-1.9c-0.5-3,1.6-5.8,4.7-5.9
			l2-0.1c2.2-0.1,4-1.6,4.6-3.7l0.5-1.9c0.8-2.9,4-4.5,6.8-3.3l1.8,0.8c2,0.8,4.3,0.3,5.7-1.4l1.3-1.5c2-2.3,5.5-2.3,7.5-0.1
			l1.3,1.5c1.4,1.6,3.8,2.1,5.7,1.3l1.8-0.8c2.8-1.2,6,0.3,6.8,3.2l0.6,1.9c0.6,2.1,2.5,3.5,4.6,3.6l2,0.1c3,0.1,5.3,2.9,4.7,5.9
			l-0.3,2c-0.4,2.1,0.7,4.3,2.6,5.3l1.7,0.9c2.7,1.4,3.5,4.9,1.7,7.3L73.7,36c-1.2,1.8-1.2,4.1,0,5.9l1.2,1.6
			C76.7,46,75.9,49.4,73.3,50.9z M27.8,79.4c-1.3,0.6-2.7,0.9-4.2,0.9c-4.7,0-8.9-3.1-10.2-7.7L13,71.1L11.5,71L5,82.9
			c-0.4,0.8-0.5,1.7-0.2,2.5l3.3,8.2c0.5,1.3,1.9,2,3.2,1.8l8.7-1.6c0.9-0.2,1.6-0.7,2-1.5l7.4-13.4l-0.1-0.1L27.8,79.4z M71.1,82.9
			c0.4,0.8,0.5,1.7,0.2,2.5L68,93.6c-0.5,1.3-1.9,2-3.2,1.8l-8.7-1.6c-0.9-0.2-1.6-0.7-2-1.5l-7.2-13.1l0.5-0.5l1.5,0.6
			c1.3,0.5,2.7,0.8,4,0.8c4.8,0,9-3.2,10.2-7.8l0.4-1.5h0.9L71.1,82.9z"/>
	</defs>
	<clipPath id="SVGID_2_">
		<use xlink:href="#SVGID_1_"  style="overflow:visible;"/>
	</clipPath>
	<rect fill="#9e9f9e" x="-4.9" y="-4.3" class="st0" width="85.7" height="104.8"/>
</g>
</svg>
