<?xml version="1.0" encoding="utf-8"?>
<!-- Generator: Adobe Illustrator 23.0.1, SVG Export Plug-In . SVG Version: 6.00 Build 0)  -->
<svg version="1.1" id="Layer_1" xmlns="http://www.w3.org/2000/svg" xmlns:xlink="http://www.w3.org/1999/xlink" x="0px" y="0px"
	 viewBox="0 0 48 36" style="enable-background:new 0 0 48 36;" xml:space="preserve">
<style type="text/css">
	.st0{clip-path:url(#SVGID_2_);}
	.st1{clip-path:url(#SVGID_4_);}
	.st2{clip-path:url(#SVGID_6_);}
	.st3{clip-path:url(#SVGID_8_);}
	.st4{clip-path:url(#SVGID_10_);}
	.st5{clip-path:url(#SVGID_12_);}
	.st6{clip-path:url(#SVGID_14_);}
	.st7{clip-path:url(#SVGID_16_);}
</style>
<g>
	<defs>
		<polygon id="SVGID_1_" points="21.7,0.8 7.3,0.8 14.5,9.2 		"/>
	</defs>
	<clipPath id="SVGID_2_">
		<use xlink:href="#SVGID_1_"  style="overflow:visible;"/>
	</clipPath>
	<rect fill="#9e9f9e" x="2.3" y="-4.2" class="st0" width="24.4" height="18.4"/>
</g>
<g>
	<defs>
		<polygon id="SVGID_3_" points="5.1,1.5 0,9.8 12.2,9.8 		"/>
	</defs>
	<clipPath id="SVGID_4_">
		<use xlink:href="#SVGID_3_"  style="overflow:visible;"/>
	</clipPath>
	<rect fill="#9e9f9e" x="-5" y="-3.5" class="st1" width="22.2" height="18.3"/>
</g>
<g>
	<defs>
		<polygon id="SVGID_5_" points="40.7,0.8 26.3,0.8 33.5,9.2 		"/>
	</defs>
	<clipPath id="SVGID_6_">
		<use xlink:href="#SVGID_5_"  style="overflow:visible;"/>
	</clipPath>
	<rect fill="#9e9f9e" x="21.3" y="-4.2" class="st2" width="24.4" height="18.4"/>
</g>
<g>
	<defs>
		<polygon id="SVGID_7_" points="0.5,12 21.3,34.1 13.7,12 		"/>
	</defs>
	<clipPath id="SVGID_8_">
		<use xlink:href="#SVGID_7_"  style="overflow:visible;"/>
	</clipPath>
	<rect fill="#9e9f9e" x="-4.5" y="7" class="st3" width="30.8" height="32.1"/>
</g>
<g>
	<defs>
		<polygon id="SVGID_9_" points="31.2,9.8 24,1.3 16.8,9.8 		"/>
	</defs>
	<clipPath id="SVGID_10_">
		<use xlink:href="#SVGID_9_"  style="overflow:visible;"/>
	</clipPath>
	<rect fill="#9e9f9e" x="11.8" y="-3.7" class="st4" width="24.4" height="18.5"/>
</g>
<g>
	<defs>
		<polygon id="SVGID_11_" points="48,9.8 42.9,1.5 35.8,9.8 		"/>
	</defs>
	<clipPath id="SVGID_12_">
		<use xlink:href="#SVGID_11_"  style="overflow:visible;"/>
	</clipPath>
	<rect fill="#9e9f9e" x="30.8" y="-3.5" class="st5" width="22.2" height="18.3"/>
</g>
<g>
	<defs>
		<polygon id="SVGID_13_" points="26.7,34.1 47.5,12 34.3,12 		"/>
	</defs>
	<clipPath id="SVGID_14_">
		<use xlink:href="#SVGID_13_"  style="overflow:visible;"/>
	</clipPath>
	<rect fill="#9e9f9e" x="21.7" y="7" class="st6" width="30.8" height="32.1"/>
</g>
<g>
	<defs>
		<polygon id="SVGID_15_" points="16,12 24,35.2 32,12 		"/>
	</defs>
	<clipPath id="SVGID_16_">
		<use xlink:href="#SVGID_15_"  style="overflow:visible;"/>
	</clipPath>
	<rect fill="#9e9f9e" x="11" y="7" class="st7" width="26" height="33.2"/>
</g>
</svg>
