<?xml version="1.0" encoding="utf-8"?>
<!-- Generator: Adobe Illustrator 23.0.1, SVG Export Plug-In . SVG Version: 6.00 Build 0)  -->
<svg version="1.1" id="Layer_1" xmlns="http://www.w3.org/2000/svg" xmlns:xlink="http://www.w3.org/1999/xlink" x="0px" y="0px"
	 viewBox="0 0 46 72" style="enable-background:new 0 0 46 72;" xml:space="preserve">
<style type="text/css">
	.st0{clip-path:url(#SVGID_2_);}
	.st1{clip-path:url(#SVGID_4_);}
	.st2{clip-path:url(#SVGID_6_);}
	.st3{clip-path:url(#SVGID_8_);}
</style>
<g>
	<defs>
		<path id="SVGID_1_" d="M39.5,1.3v5.4c0,0.5-0.4,0.8-0.8,0.8h-5.8c-4.7,0-4.7,0-6.5,4.3c-1,2.4-1.9,4.9-3,7.2
			c-0.2,0.5-0.9,1.1-1.4,1.1c-3.6,0.1-7.1,0.1-10.9,0.1c-0.4,0-0.8-0.3-0.8-0.7c-0.1-0.8-0.2-1.5-0.2-2.3c0-1-0.4-1.3-1.4-1.2
			c-2,0.1-4,0.2-6,0.1c-0.7,0-1.3-0.4-2-0.7c-0.4-0.2-0.6-0.6-0.4-1c0.3-0.7,0.5-1.4,1-1.8c3.4-3.5,7-6.9,10.5-10.2
			C12.7,1.6,14,1.2,15,0.6c0.1-0.1,0.2-0.1,0.4-0.1h23.2C39.1,0.5,39.5,0.9,39.5,1.3z"/>
	</defs>
	<clipPath id="SVGID_2_">
		<use xlink:href="#SVGID_1_"  style="overflow:visible;"/>
	</clipPath>
	<rect fill="#9e9f9e" x="-4.8" y="-4.5" class="st0" width="49.3" height="29.7"/>
</g>
<g>
	<defs>
		<path id="SVGID_3_" d="M31.5,9.9H38c0.3,0,0.6,0.2,0.6,0.6c0.5,4.1,1.6,8,3.9,11.4c0.7,1,1.6,1.9,2.2,3c0.3,0.4,0.4,0.9,0.5,1.4
			c0.1,0.4-0.2,0.8-0.6,0.8c-0.6,0-1.2,0-1.6-0.2c-3.9-2-7-5-9.1-8.9c-1.2-2.2-2-4.6-3-7.2C30.7,10.3,31,9.9,31.5,9.9z"/>
	</defs>
	<clipPath id="SVGID_4_">
		<use xlink:href="#SVGID_3_"  style="overflow:visible;"/>
	</clipPath>
	<rect fill="#9e9f9e" x="25.8" y="4.9" class="st1" width="24.4" height="27.2"/>
</g>
<g>
	<defs>
		<path id="SVGID_5_" d="M41.7,6.7V3.1c0-0.4,0.4-0.7,0.8-0.6c0.9,0.3,1.8,0.5,2.5,1c0.5,0.3,0.7,1.3,0.7,1.9c0,0.4-0.5,1.1-0.9,1.3
			c-0.7,0.3-1.5,0.5-2.3,0.7C42.1,7.4,41.7,7.1,41.7,6.7z"/>
	</defs>
	<clipPath id="SVGID_6_">
		<use xlink:href="#SVGID_5_"  style="overflow:visible;"/>
	</clipPath>
	<rect fill="#9e9f9e" x="36.7" y="-2.5" class="st2" width="14" height="14.9"/>
</g>
<g>
	<defs>
		<path id="SVGID_7_" d="M25.9,33.6L23.2,29h0.3c0.4,0,0.8-0.4,0.8-0.8v-3.7c0-0.4-0.4-0.8-0.8-0.8H10.2c-0.4,0-0.8,0.4-0.8,0.8v3.7
			c0,0.4,0.4,0.8,0.8,0.8h0.3l-2.7,4.6c-4.6,7.7-7,16.5-7,25.4v11.2c0,0.7,0.6,1.3,1.3,1.3h29.4c0.7,0,1.3-0.6,1.3-1.3V59
			C32.8,50,30.4,41.3,25.9,33.6z"/>
	</defs>
	<clipPath id="SVGID_8_">
		<use xlink:href="#SVGID_7_"  style="overflow:visible;"/>
	</clipPath>
	<rect fill="#9e9f9e" x="-4.2" y="18.7" class="st3" width="42" height="57.8"/>
</g>
</svg>
