<svg id="Layer_1" data-name="Layer 1" xmlns="http://www.w3.org/2000/svg" xmlns:xlink="http://www.w3.org/1999/xlink" viewBox="0 0 406.21 392"><defs><style>.cls-1,.cls-2{fill:none;}.cls-1{clip-rule:evenodd;}.cls-3{clip-path:url(#clip-path);}.cls-4{clip-path:url(#clip-path-2);}.cls-5{clip-path:url(#clip-path-3);}.cls-6{clip-path:url(#clip-path-4);}</style><clipPath id="clip-path" transform="translate(4.11 5)"><path class="cls-1" d="M367.11,52.62H348.7V74.19a10,10,0,0,1-10,10H280.82a10,10,0,0,1-10-10V52.62H127.18V74.19a10,10,0,0,1-10,10H59.3a10,10,0,0,1-10-10V52.62H30.89a30,30,0,0,0-30,30v55.76H397.11V82.62A30,30,0,0,0,367.11,52.62Z"/></clipPath><clipPath id="clip-path-2" transform="translate(4.11 5)"><path class="cls-1" d="M88.24,0A19,19,0,0,0,69.3,18.94V64.19h37.88V18.94A19,19,0,0,0,88.24,0Z"/></clipPath><clipPath id="clip-path-3" transform="translate(4.11 5)"><path class="cls-1" d="M309.76,0a19,19,0,0,0-18.94,18.94V64.19H328.7V18.94A19,19,0,0,0,309.76,0Z"/></clipPath><clipPath id="clip-path-4" transform="translate(4.11 5)"><path class="cls-2" d="M129.24,258.69a10,10,0,0,1,14.14-.21l37.88,36.81,72.81-68.57a10,10,0,0,1,13.71,14.56L188,316.41a10,10,0,0,1-13.83-.11l-44.74-43.47A10,10,0,0,1,129.24,258.69ZM.89,352a30,30,0,0,0,30,30H367.11a30,30,0,0,0,30-30V158.38H.89Z"/></clipPath></defs><title>icon4</title><g class="cls-3"><rect fill="#9e9f9e" y="52.62" width="406.21" height="95.76"/></g><g class="cls-4"><rect fill="#9e9f9e" x="68.4" width="47.88" height="74.19"/></g><g class="cls-5"><rect fill="#9e9f9e" x="289.93" width="47.88" height="74.19"/></g><g class="cls-6"><rect fill="#9e9f9e" y="158.38" width="406.21" height="233.62"/></g></svg>