<?xml version="1.0" encoding="utf-8"?>
<!-- Generator: Adobe Illustrator 23.0.1, SVG Export Plug-In . SVG Version: 6.00 Build 0)  -->
<svg version="1.1" id="Layer_1" xmlns="http://www.w3.org/2000/svg" xmlns:xlink="http://www.w3.org/1999/xlink" x="0px" y="0px"
	 viewBox="0 0 80 98" style="enable-background:new 0 0 80 98;" xml:space="preserve">
<style type="text/css">
	.st0{clip-path:url(#SVGID_2_);}
</style>
<g>
	<defs>
		<path id="SVGID_1_" d="M44.3,4.3c0,2.4-1.9,4.3-4.3,4.3s-4.3-1.9-4.3-4.3C35.7,1.9,37.6,0,40,0S44.3,1.9,44.3,4.3z M22.7,30.8
			c-2.4,0-4.3-1.9-4.3-4.3c0-2.4,1.9-4.3,4.3-4.3s4.3,1.9,4.3,4.3c0,1.1-0.5,2.2-1.3,3.1C24.9,30.3,23.8,30.8,22.7,30.8z M53,15.4
			c0,2.4-1.9,4.3-4.3,4.3c-2.4,0-4.3-1.9-4.3-4.3s1.9-4.3,4.3-4.3C51.1,11.1,53,13,53,15.4z M35.7,15.4c0,2.4-1.9,4.3-4.3,4.3
			S27,17.8,27,15.4s1.9-4.3,4.3-4.3c1.1,0,2.2,0.5,3.1,1.3C35.2,13.1,35.7,14.2,35.7,15.4z M53,26.4c0-2.4,1.9-4.3,4.3-4.3
			c2.4,0,4.3,1.9,4.3,4.3c0,2.4-1.9,4.3-4.3,4.3c-1.1,0-2.2-0.5-3.1-1.3C53.5,28.7,53,27.6,53,26.4z M35.7,26.4
			c0-2.4,1.9-4.3,4.3-4.3s4.3,1.9,4.3,4.3c0,2.4-1.9,4.3-4.3,4.3c-1.1,0-2.2-0.5-3.1-1.3C36.1,28.7,35.7,27.6,35.7,26.4z M66.5,72.8
			c0,1.8-1.5,3.2-3.2,3.2h-7.6c-1.6,0-3-1.2-3.2-2.8c-0.2-1.6,0.8-3.1,2.4-3.6l7.6-2c1-0.3,2,0,2.8,0.6c0.8,0.6,1.3,1.6,1.3,2.6
			V72.8z M24.4,76h-7.6c-1.8,0-3.2-1.5-3.2-3.2v-2c0-1,0.5-2,1.3-2.6c0.8-0.6,1.8-0.8,2.8-0.6l7.6,2c1.6,0.4,2.6,1.9,2.4,3.6
			C27.4,74.8,26,76,24.4,76z M75.9,51.7h-1.5c-1.8,0.1-3.4,0.8-4.7,2.1c-2-4.9-4.5-10.6-6.1-12.8c-2.8-4-6.8-5.1-9.7-5.6
			c-4.6-0.7-9.3-1-14-0.9c-4.7-0.1-9.4,0.2-14,0.9c-2.8,0.5-6.9,1.6-9.6,5.6c-1.6,2.2-4.1,7.9-6.1,12.8c-1.2-1.3-2.9-2-4.7-2.1H4.1
			c-2.2,0-4.1,1.8-4.1,4.1c0,0.9,0,1.8,0,3c0.1,2.3,1.9,4.2,4.2,4.2h2c-0.2,0.3-0.4,0.6-0.6,0.9c-2,3-3,6.5-2.9,10.1v19.9
			c0,1.1,0.4,2.2,1.2,3c0.8,0.8,1.9,1.2,3,1.2h5.4c1.1,0,2.2-0.4,2.9-1.2c0.8-0.8,1.2-1.8,1.2-2.9v-3.1h47v3.1
			c0,2.3,1.8,4.2,4.1,4.2h5.4c2.3,0,4.2-1.9,4.2-4.2v-20c0.1-3.6-0.9-7.1-2.9-10.1c-0.2-0.3-0.4-0.6-0.6-0.8h2
			c2.3,0,4.2-1.9,4.3-4.2c0-1.2,0-2.1,0-3C80,53.5,78.1,51.7,75.9,51.7z"/>
	</defs>
	<clipPath id="SVGID_2_">
		<use xlink:href="#SVGID_1_"  style="overflow:visible;"/>
	</clipPath>
	<rect fill="#9e9f9e" x="-5" y="-5" class="st0" width="90" height="108"/>
</g>
</svg>
