<?xml version="1.0" encoding="utf-8"?>
<!-- Generator: Adobe Illustrator 23.0.1, SVG Export Plug-In . SVG Version: 6.00 Build 0)  -->
<svg version="1.1" id="Layer_1" xmlns="http://www.w3.org/2000/svg" xmlns:xlink="http://www.w3.org/1999/xlink" x="0px" y="0px"
	 viewBox="0 0 322 73" style="enable-background:new 0 0 322 73;" xml:space="preserve">
<style type="text/css">
	.st0{fill:none;}
	.st1{fill:#383838;}
	.st2{fill:none;stroke:#383838;stroke-width:0;stroke-linecap:round;stroke-linejoin:round;}
</style>
<title>KochChemie_Detailing_RU_vector_curves1</title>
<desc>Created with Sketch.</desc>
<g>
	<path class="st0" d="M214.1,11.7c-3.4,0-4.4,2.7-4.5,4.2h8.8C217.9,13.2,216.7,11.7,214.1,11.7z"/>
	<path class="st0" d="M237.7,49.7c-3.5,0-4.4,2.7-4.5,4.2h8.8C241.5,51.1,240.3,49.7,237.7,49.7z"/>
	<path class="st0" d="M228.9,10.6c1.9,0,3.4-1.5,3.4-3.6c0-2-1.5-3.5-3.4-3.5c-1.9,0-3.4,1.5-3.4,3.5C225.5,9.1,227,10.6,228.9,10.6
		z M227.1,4.5h1.9c1.3,0,2,0.4,2,1.5c0,0.9-0.6,1.3-1.3,1.3l1.3,2.2h-1l-1.2-2.2h-0.6v2.2h-1V4.5z"/>
	<path class="st0" d="M12.4,44.1c0,7.4-1.1,12.2-3.6,16.6h11.1V43.6h-7.5V44.1z"/>
	<path class="st0" d="M40.1,49.7c-3.5,0-4.4,2.7-4.5,4.2h8.8C43.9,51.1,42.7,49.7,40.1,49.7z"/>
	<path class="st0" d="M79.6,49.7c-3.5,0-4.4,2.7-4.5,4.2h8.8C83.4,51.1,82.2,49.7,79.6,49.7z"/>
	<path class="st0" d="M149.5,11.7c-3.4,0-4.4,2.7-4.5,4.2h8.8C153.4,13.2,152.2,11.7,149.5,11.7z"/>
	<path class="st0" d="M34.3,24.4c3.7,0,4.8-3.2,4.8-6.3c0-3.2-1.1-6.3-4.8-6.3c-3.7,0-4.8,3.2-4.8,6.3
		C29.5,21.2,30.6,24.4,34.3,24.4z"/>
	<path class="st0" d="M302,49.7c-3.5,0-4.7,3.2-4.7,6.3s1.2,6.2,4.7,6.2c3.5,0,4.7-3,4.7-6.2C306.7,52.8,305.5,49.7,302,49.7z"/>
	<path class="st0" d="M229,6.6c0.6,0,1-0.1,1-0.7c0-0.5-0.6-0.6-1-0.6h-0.8v1.3h0H229z"/>
	<polygon class="st1" points="6,19.1 9.4,15.7 17.6,27.9 25.2,27.9 13.5,11.4 24.1,0.7 16.6,0.7 6,12 6,0.7 0,0.7 0,27.9 6,27.9 	
		"/>
	<path class="st1" d="M34.3,28.4c6.2,0,10.2-4.1,10.2-10.4c0-6.3-4-10.4-10.2-10.4c-6.2,0-10.2,4.1-10.2,10.4
		C24.1,24.3,28.1,28.4,34.3,28.4z M34.3,11.7c3.7,0,4.8,3.2,4.8,6.3c0,3.1-1.1,6.3-4.8,6.3c-3.7,0-4.8-3.2-4.8-6.3
		C29.5,14.9,30.6,11.7,34.3,11.7z"/>
	<path class="st1" d="M56.8,28.4c5.2,0,8.8-2.9,9.5-8.1h-5.2c-0.3,2.4-1.8,4-4.3,4c-3.4,0-4.5-3.4-4.5-6.2c0-2.9,1.1-6.4,4.6-6.4
		c2.2,0,3.7,1.2,4,3.4v0h5.3c-0.3-5-4.6-7.5-9.3-7.5c-6.4,0-10.1,4.5-10.1,10.7C46.8,24.2,50.8,28.4,56.8,28.4z"/>
	<path class="st1" d="M74.2,17.6c0-4,1.3-5.6,4.2-5.6c2.5,0,3.5,1.6,3.5,4.8v11.2h5.4V15.8c0-4.9-1.5-8.1-7.2-8.1
		c-2,0-4.4,1.1-5.8,3.3h-0.1V0.7h-5.4v27.3h5.4V17.6z"/>
	<path class="st1" d="M109.8,17.4c-0.5,3.6-2.5,6.1-6.2,6.1c-5.4,0-7.4-4.6-7.4-9.1c0-4.8,2-9.4,7.4-9.4c3,0,5.6,2.1,6,4.8h5.8
		c-0.7-6.3-5.8-9.8-11.8-9.8c-8.4,0-13.4,6.3-13.4,14.4c0,7.9,5,14.2,13.4,14.2c6.7,0,11.4-4.3,12-11.1H109.8z"/>
	<path class="st1" d="M129.8,7.6c-2,0-4.4,1.1-5.8,3.3H124V0.7h-5.4v27.3h5.4V17.6c0-4,1.3-5.6,4.2-5.6c2.5,0,3.5,1.6,3.5,4.8v11.2
		h5.4V15.8C137.1,10.9,135.6,7.6,129.8,7.6z"/>
	<path class="st1" d="M149.7,7.6c-6,0-10.1,4.5-10.1,10.4c0,6.1,3.9,10.4,10.1,10.4c4.5,0,7.7-2,9.2-6.6h-4.8
		c-0.3,1.2-2.1,2.6-4.3,2.6c-3,0-4.7-1.6-4.9-5h14.2C159.7,13.3,156.4,7.6,149.7,7.6z M145,15.9c0.1-1.5,1.1-4.2,4.5-4.2
		c2.6,0,3.8,1.4,4.3,4.2H145z"/>
	<path class="st1" d="M186.8,16.7v11.2h5.4V14.7c0-5.1-3-7.1-7.2-7.1c-2.8,0-4.8,1.6-6,3.3c-1.1-2.4-3.3-3.3-5.8-3.3
		c-2.6,0-4.6,1.2-6,3.2h-0.1V8.2H162v19.7h5.4V16.5c0-3.9,2.6-4.5,3.7-4.5c3.4,0,3.3,2.6,3.3,4.9v11.1h5.4v-11c0-2.5,0.6-5,3.6-5
		C186.5,11.9,186.8,14.1,186.8,16.7z"/>
	<rect x="196" y="0.7" class="st1" width="5.4" height="4.5"/>
	<rect x="196" y="8.2" class="st1" width="5.4" height="19.7"/>
	<path class="st1" d="M214.2,28.4c4.5,0,7.7-2,9.2-6.6h-4.8c-0.3,1.2-2.1,2.6-4.3,2.6c-3,0-4.7-1.6-4.8-5h14.2
		c0.4-6.1-2.9-11.7-9.6-11.7c-6,0-10.1,4.5-10.1,10.4C204.2,24.2,208,28.4,214.2,28.4z M214.1,11.7c2.6,0,3.8,1.4,4.3,4.2h-8.8
		C209.7,14.4,210.6,11.7,214.1,11.7z"/>
	<path class="st1" d="M228.1,7.4h0.6l1.2,2.2h1l-1.3-2.2c0.8-0.1,1.3-0.4,1.3-1.3c0-1.1-0.7-1.5-2-1.5h-1.9v5.1h1V7.4z M228.1,5.3
		h0.8c0.5,0,1,0.1,1,0.6c0,0.6-0.4,0.7-1,0.7h-0.9h0V5.3z"/>
	<path class="st1" d="M228.9,11.6c2.5,0,4.6-1.8,4.6-4.5c0-2.8-2.2-4.5-4.6-4.5s-4.6,1.8-4.6,4.5C224.3,9.8,226.5,11.6,228.9,11.6z
		 M228.9,3.5c1.9,0,3.4,1.5,3.4,3.5c0,2.1-1.5,3.6-3.4,3.6c-1.9,0-3.4-1.5-3.4-3.6C225.5,5,227,3.5,228.9,3.5z"/>
	<path class="st1" d="M25.9,38.6H6.5v4.1c0,8-1.1,13.6-4.3,18H0.1v12H6v-7h17v7h5.8v-12h-2.9V38.6z M19.9,60.8H8.8
		c2.5-4.5,3.6-9.2,3.6-16.6v-0.5h7.5V60.8z"/>
	<path class="st1" d="M40.3,45.6c-6,0-10,4.5-10,10.4c0,6.1,3.8,10.3,10,10.3c4.5,0,7.7-1.9,9.2-6.6h-4.8c-0.3,1.2-2.1,2.5-4.3,2.5
		c-3,0-4.7-1.5-4.8-5h14.2C50.2,51.2,47,45.6,40.3,45.6z M35.6,53.8c0.1-1.5,1-4.2,4.5-4.2c2.6,0,3.8,1.4,4.3,4.2H35.6z"/>
	<polygon class="st1" points="50.6,50.2 57.1,50.2 57.1,65.8 62.5,65.8 62.5,50.2 68.9,50.2 68.9,46.1 50.6,46.1 	"/>
	<path class="st1" d="M79.7,45.6c-6,0-10,4.5-10,10.4c0,6.1,3.8,10.3,10,10.3c4.5,0,7.7-1.9,9.2-6.6h-4.8c-0.3,1.2-2.1,2.5-4.3,2.5
		c-3,0-4.7-1.5-4.8-5h14.2C89.7,51.2,86.4,45.6,79.7,45.6z M75.1,53.8c0.1-1.5,1-4.2,4.5-4.2c2.6,0,3.8,1.4,4.3,4.2H75.1z"/>
	<path class="st1" d="M108.2,38h-2.4c-0.5,1.8-1.9,2.5-4.2,2.5c-1.5,0-3.5-0.7-3.8-2.5h-2.5c0.3,3.5,2.4,5.4,6,5.4
		C105.2,43.4,107.7,41.7,108.2,38z"/>
	<polygon class="st1" points="97.7,59.1 97.7,46.1 92.5,46.1 92.5,65.8 98.5,65.8 105.7,52.8 105.7,65.8 110.8,65.8 110.8,46.1 
		104.8,46.1 	"/>
	<path class="st1" d="M117.2,58.4c-0.1,2.5-0.9,3.5-2.4,3.5c-0.6,0-1.1-0.1-1.5-0.2v4.2c0.9,0.3,1.8,0.4,2.5,0.4
		c4.2,0,6.4-2.3,6.6-7.5l0.3-8.6h5.2v15.6h5.4V46.1h-15.8L117.2,58.4z"/>
	<polygon class="st1" points="142.8,59.1 142.8,46.1 137.6,46.1 137.6,65.8 143.6,65.8 150.8,52.8 150.8,65.8 155.9,65.8 
		155.9,46.1 149.9,46.1 	"/>
	<polygon class="st1" points="173.1,53.3 165.6,53.3 165.6,46.1 160.2,46.1 160.2,65.8 165.6,65.8 165.6,57.5 173.1,57.5 
		173.1,65.8 178.5,65.8 178.5,46.1 173.1,46.1 	"/>
	<polygon class="st1" points="182.7,65.8 188.1,65.8 188.1,50.2 197.6,50.2 197.6,46.1 182.7,46.1 	"/>
	<polygon class="st1" points="223.5,38.6 217.5,38.6 217.5,60.8 206.5,60.8 206.5,38.6 200.5,38.6 200.5,65.8 220.6,65.8 
		220.6,72.7 226.4,72.7 226.4,60.8 223.5,60.8 	"/>
	<path class="st1" d="M237.8,45.6c-6,0-10,4.5-10,10.4c0,6.1,3.8,10.3,10,10.3c4.5,0,7.7-1.9,9.2-6.6h-4.8c-0.3,1.2-2.1,2.5-4.3,2.5
		c-3,0-4.7-1.5-4.8-5h14.2C247.8,51.2,244.5,45.6,237.8,45.6z M233.2,53.8c0.1-1.5,1-4.2,4.5-4.2c2.6,0,3.8,1.4,4.3,4.2H233.2z"/>
	<polygon class="st1" points="263.5,53.3 256,53.3 256,46.1 250.6,46.1 250.6,65.8 256,65.8 256,57.5 263.5,57.5 263.5,65.8 
		268.9,65.8 268.9,46.1 263.5,46.1 	"/>
	<polygon class="st1" points="271.4,50.2 277.9,50.2 277.9,65.8 283.3,65.8 283.3,50.2 289.7,50.2 289.7,46.1 271.4,46.1 	"/>
	<line class="st2" x1="292.1" y1="46.1" x2="292.1" y2="46.1"/>
	<path class="st1" d="M303.2,45.6c-2.4,0-4.5,0.9-5.9,3h-0.1v-2.5h-5.1v26.6h5.4v-9.3h0.1c1.3,1.9,3.5,3,5.9,3
		c5.8,0,8.6-4.9,8.6-10.1C312.1,50.6,309.4,45.6,303.2,45.6z M302,62.2c-3.5,0-4.7-3-4.7-6.2s1.1-6.3,4.7-6.3c3.5,0,4.7,3.2,4.7,6.3
		C306.7,59.2,305.6,62.2,302,62.2z"/>
	<rect x="315.6" y="59.9" class="st1" width="6" height="5.9"/>
</g>
</svg>
