<?xml version="1.0" encoding="utf-8"?>
<!-- Generator: Adobe Illustrator 23.0.1, SVG Export Plug-In . SVG Version: 6.00 Build 0)  -->
<svg version="1.1" id="Layer_1" xmlns="http://www.w3.org/2000/svg" xmlns:xlink="http://www.w3.org/1999/xlink" x="0px" y="0px"
	 viewBox="0 0 224.8 55.8" style="enable-background:new 0 0 224.8 55.8;" xml:space="preserve">
<style type="text/css">
	.st0{fill-rule:evenodd;clip-rule:evenodd;fill:#FFFFFF;}
	.st1{fill:#FFFFFF;}
	.st2{fill:#CD2B34;}
	.st3{fill:#0C5D9A;}
</style>
<path class="st0" d="M78.3,32.6c-1.2,1.3-2.9,1.9-4.7,1.9c-1.7,0.1-3.4-0.6-4.6-1.9l2.6-2.7c0.5,0.6,1.2,0.9,2,0.9
	c0.6,0,1.2-0.2,1.6-0.7c0.4-0.7,0.6-1.5,0.6-2.4h-4.1v-3.6h4c0-0.8-0.2-1.6-0.6-2.3c-0.4-0.5-1-0.7-1.6-0.7c-0.8-0.1-1.5,0.3-2,0.9
	L69,19.2c1.2-1.2,2.8-1.9,4.5-1.8c1.8-0.1,3.5,0.6,4.7,1.9c1.3,1.3,1.7,2.8,1.7,6v1.5C80,27.9,80.1,30.7,78.3,32.6"/>
<path class="st1" d="M78.3,32.6c-1.2,1.3-2.9,1.9-4.7,1.9c-1.7,0.1-3.4-0.6-4.6-1.9l2.6-2.7c0.5,0.6,1.2,0.9,2,0.9
	c0.6,0,1.2-0.2,1.6-0.7c0.4-0.7,0.6-1.5,0.6-2.4h-4.1v-3.6h4c0-0.8-0.2-1.6-0.6-2.3c-0.4-0.5-1-0.7-1.6-0.7c-0.8-0.1-1.5,0.3-2,0.9
	L69,19.2c1.2-1.2,2.8-1.9,4.5-1.8c1.8-0.1,3.5,0.6,4.7,1.9c1.3,1.3,1.7,2.8,1.7,6v1.5C80,27.9,80.1,30.7,78.3,32.6"/>
<polygon class="st0" points="91.3,34.3 91.3,27.7 87,27.7 87,34.3 82.9,34.3 82.9,17.6 87,17.6 87,24 91.3,24 91.3,17.6 95.4,17.6 
	95.4,34.3 "/>
<polygon class="st1" points="91.3,34.3 91.3,27.7 87,27.7 87,34.3 82.9,34.3 82.9,17.6 87,17.6 87,24 91.3,24 91.3,17.6 95.4,17.6 
	95.4,34.3 "/>
<polygon class="st0" points="98.8,34.3 98.8,17.6 110.2,17.6 110.2,21.2 102.9,21.2 102.9,24 109.1,24 109.1,27.7 102.9,27.7 
	102.9,30.6 110.2,30.6 110.2,34.3 "/>
<polygon class="st1" points="98.8,34.3 98.8,17.6 110.2,17.6 110.2,21.2 102.9,21.2 102.9,24 109.1,24 109.1,27.7 102.9,27.7 
	102.9,30.6 110.2,30.6 110.2,34.3 "/>
<path class="st0" d="M119.7,28.3h-2.6v6h-4.1V17.6h6.6c3-0.2,5.5,2.1,5.7,5c0,0.1,0,0.2,0,0.4C125.4,26.1,123,28.3,119.7,28.3
	 M119.5,21.3h-2.3v3.4h2.3c0.9,0,1.7-0.8,1.7-1.7S120.4,21.3,119.5,21.3"/>
<path class="st1" d="M119.7,28.3h-2.6v6h-4.1V17.6h6.6c3-0.2,5.5,2.1,5.7,5c0,0.1,0,0.2,0,0.4C125.4,26.1,123,28.3,119.7,28.3
	 M119.5,21.3h-2.3v3.4h2.3c0.9,0,1.7-0.8,1.7-1.7S120.4,21.3,119.5,21.3"/>
<polygon class="st0" points="131.9,21.2 131.9,34.3 127.8,34.3 127.8,17.6 138.6,17.6 138.6,21.2 "/>
<polygon class="st1" points="131.9,21.2 131.9,34.3 127.8,34.3 127.8,17.6 138.6,17.6 138.6,21.2 "/>
<path class="st0" d="M150.8,32.6c-2.6,2.5-6.7,2.5-9.4,0c-1.7-1.8-1.7-4.1-1.7-6.2v-1.1c0-3.3,0.4-4.7,1.7-6c1.2-1.3,2.9-2,4.7-1.9
	c1.8-0.1,3.5,0.6,4.7,1.9c1.2,1.2,1.7,2.7,1.7,5.1v1.5C152.5,28.3,152.6,30.7,150.8,32.6z M148.4,25.2c0.1-1.2-0.1-2.4-0.6-3.4
	c-0.4-0.5-1-0.8-1.6-0.7c-0.6,0-1.2,0.2-1.6,0.7c-0.5,1.1-0.7,2.2-0.6,3.4v1.1c0,2.1,0.2,3.1,0.6,3.6c0.4,0.5,1,0.8,1.6,0.8
	c0.6,0,1.2-0.3,1.6-0.8c0.4-0.6,0.6-1.5,0.6-3.6V25.2z"/>
<path class="st1" d="M150.8,32.6c-2.6,2.5-6.7,2.5-9.4,0c-1.7-1.8-1.7-4.1-1.7-6.2v-1.1c0-3.3,0.4-4.7,1.7-6c1.2-1.3,2.9-2,4.7-1.9
	c1.8-0.1,3.5,0.6,4.7,1.9c1.2,1.2,1.7,2.7,1.7,5.1v1.5C152.5,28.3,152.6,30.7,150.8,32.6z M148.4,25.2c0.1-1.2-0.1-2.4-0.6-3.4
	c-0.4-0.5-1-0.8-1.6-0.7c-0.6,0-1.2,0.2-1.6,0.7c-0.5,1.1-0.7,2.2-0.6,3.4v1.1c0,2.1,0.2,3.1,0.6,3.6c0.4,0.5,1,0.8,1.6,0.8
	c0.6,0,1.2-0.3,1.6-0.8c0.4-0.6,0.6-1.5,0.6-3.6V25.2z"/>
<path class="st0" d="M163.8,34c-0.8,0.3-1.7,0.5-2.6,0.5c-1.8,0.1-3.5-0.6-4.7-1.9c-0.8-0.8-1.3-1.8-1.5-2.9
	c-0.1-1.2-0.2-2.5-0.2-3.7v-0.6c0-3.3,0.4-4.7,1.7-6c1.2-1.3,2.9-2,4.7-1.9c0.9,0,1.8,0.1,2.6,0.5c0.8,0.3,1.4,0.8,2,1.4l-2.7,2.7
	c-0.4-0.6-1.1-0.9-1.9-0.9c-0.6,0-1.2,0.2-1.6,0.7c-0.5,0.6-0.6,1.6-0.6,4.5c0,2.2,0.2,3.2,0.6,3.8c0.4,0.5,1,0.7,1.6,0.7
	c0.7,0,1.4-0.3,1.9-0.9l2.7,2.7C165.2,33.2,164.6,33.7,163.8,34"/>
<path class="st1" d="M163.8,34c-0.8,0.3-1.7,0.5-2.6,0.5c-1.8,0.1-3.5-0.6-4.7-1.9c-0.8-0.8-1.3-1.8-1.5-2.9
	c-0.1-1.2-0.2-2.5-0.2-3.7v-0.6c0-3.3,0.4-4.7,1.7-6c1.2-1.3,2.9-2,4.7-1.9c0.9,0,1.8,0.1,2.6,0.5c0.8,0.3,1.4,0.8,2,1.4l-2.7,2.7
	c-0.4-0.6-1.1-0.9-1.9-0.9c-0.6,0-1.2,0.2-1.6,0.7c-0.5,0.6-0.6,1.6-0.6,4.5c0,2.2,0.2,3.2,0.6,3.8c0.4,0.5,1,0.7,1.6,0.7
	c0.7,0,1.4-0.3,1.9-0.9l2.7,2.7C165.2,33.2,164.6,33.7,163.8,34"/>
<polygon class="st0" points="175.4,21.2 175.4,34.3 171.3,34.3 171.3,21.2 167.2,21.2 167.2,17.6 179.5,17.6 179.5,21.2 "/>
<polygon class="st1" points="175.4,21.2 175.4,34.3 171.3,34.3 171.3,21.2 167.2,21.2 167.2,17.6 179.5,17.6 179.5,21.2 "/>
<path class="st0" d="M188.6,28.3H186v6h-4.1V17.6h6.6c3-0.2,5.5,2.1,5.7,5c0,0.1,0,0.2,0,0.4C194.3,26.1,191.9,28.3,188.6,28.3
	 M188.4,21.3H186v3.4h2.3c0.9,0,1.7-0.8,1.7-1.7S189.3,21.3,188.4,21.3"/>
<path class="st1" d="M188.6,28.3H186v6h-4.1V17.6h6.6c3-0.2,5.5,2.1,5.7,5c0,0.1,0,0.2,0,0.4C194.3,26.1,191.9,28.3,188.6,28.3
	 M188.4,21.3H186v3.4h2.3c0.9,0,1.7-0.8,1.7-1.7S189.3,21.3,188.4,21.3"/>
<path class="st0" d="M207.2,32.6c-1.2,1.3-2.9,2-4.6,1.9c-1.8,0.1-3.5-0.6-4.7-1.9c-1.7-1.8-1.7-4.1-1.7-6.2v-1.1
	c0-3.3,0.4-4.7,1.7-6c1.2-1.3,2.9-2,4.6-1.9c1.8-0.1,3.5,0.6,4.7,1.9c1.2,1.2,1.7,2.7,1.7,5.1v1.5C208.8,28.3,208.9,30.7,207.2,32.6
	z M204.8,25.2c0.1-1.2-0.1-2.4-0.6-3.4c-0.8-0.9-2.2-1-3.1-0.2c-0.1,0-0.1,0.1-0.2,0.2c-0.5,1.1-0.7,2.2-0.6,3.4v1.1
	c0,2.1,0.2,3.1,0.6,3.6c0.8,0.9,2.2,1,3.1,0.2c0.1-0.1,0.1-0.1,0.2-0.2c0.4-0.6,0.6-1.5,0.6-3.6V25.2z"/>
<path class="st1" d="M207.2,32.6c-1.2,1.3-2.9,2-4.6,1.9c-1.8,0.1-3.5-0.6-4.7-1.9c-1.7-1.8-1.7-4.1-1.7-6.2v-1.1
	c0-3.3,0.4-4.7,1.7-6c1.2-1.3,2.9-2,4.6-1.9c1.8-0.1,3.5,0.6,4.7,1.9c1.2,1.2,1.7,2.7,1.7,5.1v1.5C208.8,28.3,208.9,30.7,207.2,32.6
	z M204.8,25.2c0.1-1.2-0.1-2.4-0.6-3.4c-0.8-0.9-2.2-1-3.1-0.2c-0.1,0-0.1,0.1-0.2,0.2c-0.5,1.1-0.7,2.2-0.6,3.4v1.1
	c0,2.1,0.2,3.1,0.6,3.6c0.8,0.9,2.2,1,3.1,0.2c0.1-0.1,0.1-0.1,0.2-0.2c0.4-0.6,0.6-1.5,0.6-3.6V25.2z"/>
<path class="st0" d="M220.6,34.3v-9.1l-5.4,9.1h-3.6V17.6h4.1v9.1l5.4-9.1h3.6v16.8H220.6z M218.3,16.8c-2.5,0-3.7-1.4-3.9-3.7h2.5
	c0.1,0.8,0.9,1.2,1.6,1.1c0.6-0.1,1-0.5,1.1-1.1h2.5C222,15.4,220.7,16.8,218.3,16.8L218.3,16.8z"/>
<path class="st1" d="M220.6,34.3v-9.1l-5.4,9.1h-3.6V17.6h4.1v9.1l5.4-9.1h3.6v16.8H220.6z M218.3,16.8c-2.5,0-3.7-1.4-3.9-3.7h2.5
	c0.1,0.8,0.9,1.2,1.6,1.1c0.6-0.1,1-0.5,1.1-1.1h2.5C222,15.4,220.7,16.8,218.3,16.8L218.3,16.8z"/>
<path class="st0" d="M71.4,42.2c-0.4,0-0.8-0.1-1.1-0.4c-0.4-0.5-0.5-1.1-0.4-1.7c0-0.8,0-1.3,0.4-1.7c0.3-0.3,0.7-0.4,1.1-0.4
	c0.4,0,0.9,0.2,1.2,0.5l-0.3,0.3c-0.2-0.3-0.5-0.4-0.9-0.4c-0.3,0-0.5,0.1-0.7,0.3c-0.3,0.3-0.3,0.8-0.3,1.5v0.2c0,0.8,0,1,0.3,1.3
	c0.2,0.2,0.5,0.3,0.7,0.3c0.3,0,0.7-0.2,0.9-0.4l0.3,0.3C72.3,42,71.8,42.2,71.4,42.2"/>
<path class="st1" d="M71.4,42.2c-0.4,0-0.8-0.1-1.1-0.4c-0.4-0.5-0.5-1.1-0.4-1.7c0-0.8,0-1.3,0.4-1.7c0.3-0.3,0.7-0.4,1.1-0.4
	c0.4,0,0.9,0.2,1.2,0.5l-0.3,0.3c-0.2-0.3-0.5-0.4-0.9-0.4c-0.3,0-0.5,0.1-0.7,0.3c-0.3,0.3-0.3,0.8-0.3,1.5v0.2c0,0.8,0,1,0.3,1.3
	c0.2,0.2,0.5,0.3,0.7,0.3c0.3,0,0.7-0.2,0.9-0.4l0.3,0.3C72.3,42,71.8,42.2,71.4,42.2"/>
<polygon class="st0" points="75.4,38.3 75.4,42.1 74.9,42.1 74.9,38.3 73.7,38.3 73.7,37.9 76.6,37.9 76.6,38.3 "/>
<polygon class="st1" points="75.4,38.3 75.4,42.1 74.9,42.1 74.9,38.3 73.7,38.3 73.7,37.9 76.6,37.9 76.6,38.3 "/>
<path class="st0" d="M79.6,37.9c0.7,0,1.2,0.6,1.2,1.2c0,0.7-0.6,1.2-1.2,1.2c0,0,0,0,0,0h-1.1v1.7H78v-4.2H79.6z M79.6,40
	c0.5,0,0.8-0.4,0.8-0.8s-0.4-0.8-0.8-0.8h-1.1V40H79.6z"/>
<path class="st1" d="M79.6,37.9c0.7,0,1.2,0.6,1.2,1.2c0,0.7-0.6,1.2-1.2,1.2c0,0,0,0,0,0h-1.1v1.7H78v-4.2H79.6z M79.6,40
	c0.5,0,0.8-0.4,0.8-0.8s-0.4-0.8-0.8-0.8h-1.1V40H79.6z"/>
<path class="st0" d="M84.7,41.7c-0.3,0.3-0.7,0.4-1.1,0.4c-0.4,0-0.8-0.1-1.1-0.4c-0.4-0.4-0.4-0.9-0.4-1.7c-0.1-0.6,0-1.2,0.4-1.7
	c0.3-0.3,0.7-0.4,1.1-0.4c0.4,0,0.8,0.1,1.1,0.4c0.4,0.5,0.5,1.1,0.4,1.7C85.1,40.9,85.1,41.4,84.7,41.7 M84.4,38.6
	c-0.4-0.4-1-0.4-1.4,0c0,0,0,0,0,0c-0.3,0.3-0.3,0.8-0.3,1.4s0,1.1,0.3,1.4c0.4,0.4,1,0.4,1.4,0c0,0,0,0,0,0
	c0.3-0.4,0.4-0.9,0.3-1.4C84.7,39.5,84.7,38.9,84.4,38.6"/>
<path class="st1" d="M84.7,41.7c-0.3,0.3-0.7,0.4-1.1,0.4c-0.4,0-0.8-0.1-1.1-0.4c-0.4-0.4-0.4-0.9-0.4-1.7c-0.1-0.6,0-1.2,0.4-1.7
	c0.3-0.3,0.7-0.4,1.1-0.4c0.4,0,0.8,0.1,1.1,0.4c0.4,0.5,0.5,1.1,0.4,1.7C85.1,40.9,85.1,41.4,84.7,41.7 M84.4,38.6
	c-0.4-0.4-1-0.4-1.4,0c0,0,0,0,0,0c-0.3,0.3-0.3,0.8-0.3,1.4s0,1.1,0.3,1.4c0.4,0.4,1,0.4,1.4,0c0,0,0,0,0,0
	c0.3-0.4,0.4-0.9,0.3-1.4C84.7,39.5,84.7,38.9,84.4,38.6"/>
<polygon class="st0" points="89.3,42.1 89.3,38.7 87.2,42.1 86.8,42.1 86.8,37.9 87.2,37.9 87.2,41.4 89.4,37.9 89.8,37.9 
	89.8,42.1 "/>
<polygon class="st1" points="89.3,42.1 89.3,38.7 87.2,42.1 86.8,42.1 86.8,37.9 87.2,37.9 87.2,41.4 89.4,37.9 89.8,37.9 
	89.8,42.1 "/>
<polygon class="st0" points="92.8,38.3 92.8,42.1 92.4,42.1 92.4,38.3 91.2,38.3 91.2,37.9 94.1,37.9 94.1,38.3 "/>
<polygon class="st1" points="92.8,38.3 92.8,42.1 92.4,42.1 92.4,38.3 91.2,38.3 91.2,37.9 94.1,37.9 94.1,38.3 "/>
<polygon class="st0" points="95.4,42.1 95.4,37.9 98.1,37.9 98.1,38.3 95.9,38.3 95.9,39.8 97.7,39.8 97.7,40.2 95.9,40.2 
	95.9,41.7 98.1,41.7 98.1,42.1 "/>
<polygon class="st1" points="95.4,42.1 95.4,37.9 98.1,37.9 98.1,38.3 95.9,38.3 95.9,39.8 97.7,39.8 97.7,40.2 95.9,40.2 
	95.9,41.7 98.1,41.7 98.1,42.1 "/>
<path class="st0" d="M102,42.1v-3.8h-1.4l-0.1,1.9c0,1.4-0.4,1.9-1.2,1.9h-0.3v-0.4h0.2c0.5,0,0.8-0.2,0.9-1.7l0.1-2.2h2.3v4.2H102z
	"/>
<path class="st1" d="M102,42.1v-3.8h-1.4l-0.1,1.9c0,1.4-0.4,1.9-1.2,1.9h-0.3v-0.4h0.2c0.5,0,0.8-0.2,0.9-1.7l0.1-2.2h2.3v4.2H102z
	"/>
<path class="st0" d="M105.9,42.1h-1.6v-4.2h0.4v1.7h1.1c0.7,0,1.2,0.6,1.2,1.2C107.1,41.6,106.6,42.1,105.9,42.1
	C105.9,42.1,105.9,42.1,105.9,42.1 M105.9,40.1h-1.1v1.7h1.1c0.5,0,0.8-0.4,0.8-0.8S106.3,40.1,105.9,40.1"/>
<path class="st1" d="M105.9,42.1h-1.6v-4.2h0.4v1.7h1.1c0.7,0,1.2,0.6,1.2,1.2C107.1,41.6,106.6,42.1,105.9,42.1
	C105.9,42.1,105.9,42.1,105.9,42.1 M105.9,40.1h-1.1v1.7h1.1c0.5,0,0.8-0.4,0.8-0.8S106.3,40.1,105.9,40.1"/>
<polygon class="st0" points="111.1,42.1 111.1,40.2 109.1,40.2 109.1,42.1 108.6,42.1 108.6,37.9 109.1,37.9 109.1,39.8 111.1,39.8 
	111.1,37.9 111.5,37.9 111.5,42.1 "/>
<polygon class="st1" points="111.1,42.1 111.1,40.2 109.1,40.2 109.1,42.1 108.6,42.1 108.6,37.9 109.1,37.9 109.1,39.8 111.1,39.8 
	111.1,37.9 111.5,37.9 111.5,42.1 "/>
<path class="st0" d="M115.7,41.7c-0.3,0.3-0.7,0.4-1.1,0.4c-0.4,0-0.8-0.1-1.1-0.4c-0.4-0.4-0.4-0.9-0.4-1.7c-0.1-0.6,0-1.2,0.4-1.7
	c0.3-0.3,0.7-0.4,1.1-0.4c0.4,0,0.8,0.1,1.1,0.4c0.4,0.5,0.5,1.1,0.4,1.7C116.1,40.9,116.1,41.3,115.7,41.7 M115.4,38.6
	c-0.4-0.4-1-0.4-1.4,0c0,0,0,0,0,0c-0.3,0.3-0.3,0.8-0.3,1.4s0,1.1,0.3,1.4c0.4,0.4,1,0.4,1.4,0c0,0,0,0,0,0
	c0.3-0.4,0.4-0.9,0.3-1.4C115.7,39.4,115.7,38.9,115.4,38.6"/>
<path class="st1" d="M115.7,41.7c-0.3,0.3-0.7,0.4-1.1,0.4c-0.4,0-0.8-0.1-1.1-0.4c-0.4-0.4-0.4-0.9-0.4-1.7c-0.1-0.6,0-1.2,0.4-1.7
	c0.3-0.3,0.7-0.4,1.1-0.4c0.4,0,0.8,0.1,1.1,0.4c0.4,0.5,0.5,1.1,0.4,1.7C116.1,40.9,116.1,41.3,115.7,41.7 M115.4,38.6
	c-0.4-0.4-1-0.4-1.4,0c0,0,0,0,0,0c-0.3,0.3-0.3,0.8-0.3,1.4s0,1.1,0.3,1.4c0.4,0.4,1,0.4,1.4,0c0,0,0,0,0,0
	c0.3-0.4,0.4-0.9,0.3-1.4C115.7,39.4,115.7,38.9,115.4,38.6"/>
<rect x="117.6" y="40.3" class="st1" width="1.6" height="0.4"/>
<rect x="117.6" y="40.3" class="st1" width="1.6" height="0.4"/>
<polygon class="st0" points="123.5,42.1 123.5,38.7 121.3,42.1 120.9,42.1 120.9,37.9 121.4,37.9 121.4,41.4 123.5,37.9 123.9,37.9 
	123.9,42.1 "/>
<polygon class="st1" points="123.5,42.1 123.5,38.7 121.3,42.1 120.9,42.1 120.9,37.9 121.4,37.9 121.4,41.4 123.5,37.9 123.9,37.9 
	123.9,42.1 "/>
<polygon class="st0" points="128.2,42.1 128.2,40.2 126.2,40.2 126.2,42.1 125.8,42.1 125.8,37.9 126.2,37.9 126.2,39.8 128.2,39.8 
	128.2,37.9 128.7,37.9 128.7,42.1 "/>
<polygon class="st1" points="128.2,42.1 128.2,40.2 126.2,40.2 126.2,42.1 125.8,42.1 125.8,37.9 126.2,37.9 126.2,39.8 128.2,39.8 
	128.2,37.9 128.7,37.9 128.7,42.1 "/>
<polygon class="st0" points="134.8,42.1 133.6,40 132.9,40.9 132.9,42.1 132.4,42.1 132.4,40.9 131.7,40 130.5,42.1 130,42.1 
	131.4,39.6 130.1,37.9 130.7,37.9 132.4,40.3 132.4,37.9 132.9,37.9 132.9,40.3 134.6,37.9 135.2,37.9 133.9,39.6 135.3,42.1 "/>
<polygon class="st1" points="134.8,42.1 133.6,40 132.9,40.9 132.9,42.1 132.4,42.1 132.4,40.9 131.7,40 130.5,42.1 130,42.1 
	131.4,39.6 130.1,37.9 130.7,37.9 132.4,40.3 132.4,37.9 132.9,37.9 132.9,40.3 134.6,37.9 135.2,37.9 133.9,39.6 135.3,42.1 "/>
<polygon class="st0" points="139.2,42.1 139.2,38.7 137.1,42.1 136.6,42.1 136.6,37.9 137.1,37.9 137.1,41.4 139.2,37.9 139.7,37.9 
	139.7,42.1 "/>
<polygon class="st1" points="139.2,42.1 139.2,38.7 137.1,42.1 136.6,42.1 136.6,37.9 137.1,37.9 137.1,41.4 139.2,37.9 139.7,37.9 
	139.7,42.1 "/>
<polygon class="st0" points="143.9,42.1 143.9,40.2 141.9,40.2 141.9,42.1 141.5,42.1 141.5,37.9 141.9,37.9 141.9,39.8 143.9,39.8 
	143.9,37.9 144.4,37.9 144.4,42.1 "/>
<polygon class="st1" points="143.9,42.1 143.9,40.2 141.9,40.2 141.9,42.1 141.5,42.1 141.5,37.9 141.9,37.9 141.9,39.8 143.9,39.8 
	143.9,37.9 144.4,37.9 144.4,42.1 "/>
<polygon class="st0" points="148.8,42.1 148.8,38.7 146.6,42.1 146.2,42.1 146.2,37.9 146.6,37.9 146.6,41.4 148.8,37.9 149.2,37.9 
	149.2,42.1 "/>
<polygon class="st1" points="148.8,42.1 148.8,38.7 146.6,42.1 146.2,42.1 146.2,37.9 146.6,37.9 146.6,41.4 148.8,37.9 149.2,37.9 
	149.2,42.1 "/>
<path class="st0" d="M152.6,37.9c0.7,0,1.2,0.6,1.2,1.2s-0.6,1.2-1.2,1.2c0,0,0,0,0,0h-1.1v1.7H151v-4.2H152.6z M152.6,40
	c0.5,0,0.8-0.4,0.8-0.8s-0.4-0.8-0.8-0.8h-1.1V40H152.6z"/>
<path class="st1" d="M152.6,37.9c0.7,0,1.2,0.6,1.2,1.2s-0.6,1.2-1.2,1.2c0,0,0,0,0,0h-1.1v1.7H151v-4.2H152.6z M152.6,40
	c0.5,0,0.8-0.4,0.8-0.8s-0.4-0.8-0.8-0.8h-1.1V40H152.6z"/>
<polygon class="st0" points="157.9,42.1 157.9,38.7 155.8,42.1 155.4,42.1 155.4,37.9 155.8,37.9 155.8,41.4 158,37.9 158.4,37.9 
	158.4,42.1 "/>
<polygon class="st1" points="157.9,42.1 157.9,38.7 155.8,42.1 155.4,42.1 155.4,37.9 155.8,37.9 155.8,41.4 158,37.9 158.4,37.9 
	158.4,42.1 "/>
<polygon class="st0" points="162.6,42.1 162.6,40.2 160.6,40.2 160.6,42.1 160.2,42.1 160.2,37.9 160.6,37.9 160.6,39.8 162.6,39.8 
	162.6,37.9 163.1,37.9 163.1,42.1 "/>
<polygon class="st1" points="162.6,42.1 162.6,40.2 160.6,40.2 160.6,42.1 160.2,42.1 160.2,37.9 160.6,37.9 160.6,39.8 162.6,39.8 
	162.6,37.9 163.1,37.9 163.1,42.1 "/>
<polygon class="st0" points="165.4,38.3 165.4,42.1 165,42.1 165,37.9 167.5,37.9 167.5,38.3 "/>
<polygon class="st1" points="165.4,38.3 165.4,42.1 165,42.1 165,37.9 167.5,37.9 167.5,38.3 "/>
<path class="st0" d="M171.2,41.7c-0.3,0.3-0.7,0.4-1.1,0.4c-0.4,0-0.8-0.1-1.1-0.4c-0.4-0.4-0.4-0.9-0.4-1.7c-0.1-0.6,0-1.2,0.4-1.7
	c0.6-0.6,1.6-0.6,2.2,0c0.4,0.5,0.5,1.1,0.4,1.7C171.6,40.9,171.6,41.4,171.2,41.7 M170.8,38.6c-0.4-0.4-1-0.4-1.4,0c0,0,0,0,0,0
	c-0.3,0.3-0.3,0.8-0.3,1.4c-0.1,0.5,0,1,0.3,1.4c0.4,0.4,1,0.4,1.4,0c0,0,0,0,0,0c0.3-0.3,0.3-0.9,0.3-1.4S171.1,38.9,170.8,38.6"/>
<path class="st1" d="M171.2,41.7c-0.3,0.3-0.7,0.4-1.1,0.4c-0.4,0-0.8-0.1-1.1-0.4c-0.4-0.4-0.4-0.9-0.4-1.7c-0.1-0.6,0-1.2,0.4-1.7
	c0.6-0.6,1.6-0.6,2.2,0c0.4,0.5,0.5,1.1,0.4,1.7C171.6,40.9,171.6,41.4,171.2,41.7 M170.8,38.6c-0.4-0.4-1-0.4-1.4,0c0,0,0,0,0,0
	c-0.3,0.3-0.3,0.8-0.3,1.4c-0.1,0.5,0,1,0.3,1.4c0.4,0.4,1,0.4,1.4,0c0,0,0,0,0,0c0.3-0.3,0.3-0.9,0.3-1.4S171.1,38.9,170.8,38.6"/>
<path class="st0" d="M175.8,40.2c0.2,0.2,0.3,0.5,0.3,0.8c0,0.6-0.4,1.1-1,1.2c-0.1,0-0.1,0-0.2,0h-1.6v-4.2h1.6
	c0.6-0.1,1.2,0.4,1.2,1c0,0,0,0.1,0,0.1c0,0.3-0.1,0.6-0.3,0.8c-0.1,0.1-0.2,0.1-0.3,0.2C175.5,40,175.7,40.1,175.8,40.2z
	 M174.8,39.8c0.5,0,0.8-0.3,0.8-0.7s-0.3-0.7-0.8-0.7h-1.1v1.5H174.8z M174.8,41.7c0.4,0,0.8-0.3,0.9-0.7c0-0.4-0.3-0.8-0.7-0.9
	c-0.1,0-0.1,0-0.2,0h-1.1v1.5H174.8z"/>
<path class="st1" d="M175.8,40.2c0.2,0.2,0.3,0.5,0.3,0.8c0,0.6-0.4,1.1-1,1.2c-0.1,0-0.1,0-0.2,0h-1.6v-4.2h1.6
	c0.6-0.1,1.2,0.4,1.2,1c0,0,0,0.1,0,0.1c0,0.3-0.1,0.6-0.3,0.8c-0.1,0.1-0.2,0.1-0.3,0.2C175.5,40,175.7,40.1,175.8,40.2z
	 M174.8,39.8c0.5,0,0.8-0.3,0.8-0.7s-0.3-0.7-0.8-0.7h-1.1v1.5H174.8z M174.8,41.7c0.4,0,0.8-0.3,0.9-0.7c0-0.4-0.3-0.8-0.7-0.9
	c-0.1,0-0.1,0-0.2,0h-1.1v1.5H174.8z"/>
<path class="st0" d="M180.2,42.1l-0.3-1H178l-0.3,1h-0.5l1.6-4.2h0.4l1.6,4.2H180.2z M178.9,38.6l-0.8,2.2h1.6L178.9,38.6z"/>
<path class="st1" d="M180.2,42.1l-0.3-1H178l-0.3,1h-0.5l1.6-4.2h0.4l1.6,4.2H180.2z M178.9,38.6l-0.8,2.2h1.6L178.9,38.6z"/>
<path class="st0" d="M184.1,42.1v-1.7h-1l-0.9,1.7h-0.5l1-1.8c-0.5-0.1-0.9-0.6-0.9-1.2c0-0.7,0.5-1.2,1.2-1.2c0,0,0.1,0,0.1,0h1.6
	v4.2H184.1z M184.1,38.3H183c-0.5,0-0.8,0.4-0.8,0.8s0.4,0.8,0.8,0.8h1.1V38.3z"/>
<path class="st1" d="M184.1,42.1v-1.7h-1l-0.9,1.7h-0.5l1-1.8c-0.5-0.1-0.9-0.6-0.9-1.2c0-0.7,0.5-1.2,1.2-1.2c0,0,0.1,0,0.1,0h1.6
	v4.2H184.1z M184.1,38.3H183c-0.5,0-0.8,0.4-0.8,0.8s0.4,0.8,0.8,0.8h1.1V38.3z"/>
<polygon class="st0" points="191.1,42.1 189.8,39.9 188.9,41 188.9,42.1 188.4,42.1 188.4,37.9 188.9,37.9 188.9,40.3 190.8,37.9 
	191.4,37.9 190.1,39.5 191.6,42.1 "/>
<polygon class="st1" points="191.1,42.1 189.8,39.9 188.9,41 188.9,42.1 188.4,42.1 188.4,37.9 188.9,37.9 188.9,40.3 190.8,37.9 
	191.4,37.9 190.1,39.5 191.6,42.1 "/>
<path class="st0" d="M195.2,41.7c-0.6,0.6-1.6,0.6-2.2,0c-0.4-0.4-0.4-0.9-0.4-1.7c-0.1-0.6,0-1.2,0.4-1.7c0.3-0.3,0.7-0.4,1.1-0.4
	c0.4,0,0.8,0.2,1.1,0.4c0.4,0.5,0.5,1.1,0.4,1.7C195.6,40.9,195.6,41.4,195.2,41.7 M194.8,38.6c-0.4-0.4-1-0.4-1.4,0c0,0,0,0,0,0
	c-0.3,0.3-0.3,0.8-0.3,1.4c-0.1,0.5,0,1,0.3,1.4c0.4,0.4,1,0.4,1.4,0c0,0,0,0,0,0c0.3-0.3,0.3-0.9,0.3-1.4S195.1,38.9,194.8,38.6"/>
<path class="st1" d="M195.2,41.7c-0.6,0.6-1.6,0.6-2.2,0c-0.4-0.4-0.4-0.9-0.4-1.7c-0.1-0.6,0-1.2,0.4-1.7c0.3-0.3,0.7-0.4,1.1-0.4
	c0.4,0,0.8,0.2,1.1,0.4c0.4,0.5,0.5,1.1,0.4,1.7C195.6,40.9,195.6,41.4,195.2,41.7 M194.8,38.6c-0.4-0.4-1-0.4-1.4,0c0,0,0,0,0,0
	c-0.3,0.3-0.3,0.8-0.3,1.4c-0.1,0.5,0,1,0.3,1.4c0.4,0.4,1,0.4,1.4,0c0,0,0,0,0,0c0.3-0.3,0.3-0.9,0.3-1.4S195.1,38.9,194.8,38.6"/>
<polygon class="st0" points="200.4,42.1 200.4,38.9 199.2,41.5 198.8,41.5 197.7,38.9 197.7,42.1 197.2,42.1 197.2,37.9 197.7,37.9 
	199,40.9 200.4,37.9 200.8,37.9 200.8,42.1 "/>
<polygon class="st1" points="200.4,42.1 200.4,38.9 199.2,41.5 198.8,41.5 197.7,38.9 197.7,42.1 197.2,42.1 197.2,37.9 197.7,37.9 
	199,40.9 200.4,37.9 200.8,37.9 200.8,42.1 "/>
<polygon class="st0" points="205.1,42.1 205.1,38.3 203.1,38.3 203.1,42.1 202.6,42.1 202.6,37.9 205.5,37.9 205.5,42.1 "/>
<polygon class="st1" points="205.1,42.1 205.1,38.3 203.1,38.3 203.1,42.1 202.6,42.1 202.6,37.9 205.5,37.9 205.5,42.1 "/>
<path class="st0" d="M209.8,42.1l-0.3-1h-1.8l-0.3,1h-0.5l1.6-4.2h0.4l1.6,4.2H209.8z M208.6,38.6l-0.8,2.2h1.6L208.6,38.6z"/>
<path class="st1" d="M209.8,42.1l-0.3-1h-1.8l-0.3,1h-0.5l1.6-4.2h0.4l1.6,4.2H209.8z M208.6,38.6l-0.8,2.2h1.6L208.6,38.6z"/>
<polygon class="st0" points="214,42.1 214,40.2 212,40.2 212,42.1 211.6,42.1 211.6,37.9 212,37.9 212,39.8 214,39.8 214,37.9 
	214.5,37.9 214.5,42.1 "/>
<polygon class="st1" points="214,42.1 214,40.2 212,40.2 212,42.1 211.6,42.1 211.6,37.9 212,37.9 212,39.8 214,39.8 214,37.9 
	214.5,37.9 214.5,42.1 "/>
<polygon class="st0" points="218.9,42.1 218.9,38.7 216.7,42.1 216.3,42.1 216.3,37.9 216.7,37.9 216.7,41.4 218.9,37.9 219.3,37.9 
	219.3,42.1 "/>
<polygon class="st1" points="218.9,42.1 218.9,38.7 216.7,42.1 216.3,42.1 216.3,37.9 216.7,37.9 216.7,41.4 218.9,37.9 219.3,37.9 
	219.3,42.1 "/>
<path class="st0" d="M223.3,42.1v-1.7h-1l-0.9,1.7h-0.5l1-1.8c-0.5-0.1-0.9-0.6-0.9-1.2c0-0.7,0.5-1.2,1.2-1.2c0,0,0.1,0,0.1,0h1.6
	v4.2H223.3z M223.3,38.3h-1.1c-0.5,0-0.8,0.4-0.8,0.8s0.4,0.8,0.8,0.8h1.1V38.3z"/>
<path class="st1" d="M223.3,42.1v-1.7h-1l-0.9,1.7h-0.5l1-1.8c-0.5-0.1-0.9-0.6-0.9-1.2c0-0.7,0.5-1.2,1.2-1.2c0,0,0.1,0,0.1,0h1.6
	v4.2H223.3z M223.3,38.3h-1.1c-0.5,0-0.8,0.4-0.8,0.8s0.4,0.8,0.8,0.8h1.1V38.3z"/>
<path class="st2" d="M43.6,37.8c-0.4,0.1-0.8,0.3-1,0.6c-3.3,4.6-8.7,7.3-14.3,7.4c-2.9,0-5.7-0.6-8.2-1.8
	c4.4,4.5,11.7,7.8,21.2,5.3c6-1.6,11.1-5.7,13.8-11.3c-0.1-0.1-0.3-0.1-0.4-0.1h-5.4C47.3,37.8,45.5,37.8,43.6,37.8"/>
<path class="st2" d="M19.8,12.1c1.9-1,4-1.7,6.2-1.9c5.6-0.8,11.2,1.2,15,5.5c1.3,1.7,3.5,2.6,5.6,2.4c2.7-0.2,5.5,0,8.3,0
	C52.2,11.7,44.7,6,35.7,5.7h-0.5C28.4,5.7,21.8,9.2,19.8,12.1"/>
<path class="st2" d="M29.7,54.7h0.1H29.7L29.7,54.7z M7.9,8.5c-10.2,10.2-10.7,28-0.1,38.7C17.9,57.6,34,58.7,44.9,49.9
	c-2.7,1.3-5.6,2-8.6,2c-2.3,0-4.6-0.3-6.9-0.5c-1.1-0.2-2.1-0.5-3.1-0.9l0,0C12.2,45.2,8,30,12.2,19.3c2.3-6.3,7.2-11.2,13.4-13.7
	C31.8,3,38.8,3.1,44.9,5.9C40.1,2,34.2-0.1,28.1,0C20.5,0,13.2,3,7.9,8.5z"/>
<path class="st3" d="M54.1,30.3c-1.5,0.5-3.1,0.7-4.7,0.8c-3.5,0-6.9-0.8-10-2.3c-3-1.5-6.4-2-9.7-1.5c-2.3,0.4-4.5,1.2-6.6,2.4
	c-0.4,0.2-0.9,0.5-1.3,0.8v0.1l0.6-0.2c1.5-0.4,3-0.6,4.5-0.6c3.8,0.1,7.5,1,10.9,2.7c3.6,1.9,7.7,2.3,11.6,1.2
	c1.7-0.5,3.2-1.4,4.6-2.5c0.3-0.2,0.6-0.5,0.8-0.8C54.5,30.2,54.3,30.3,54.1,30.3 M61.9,21.5c-1.1,0.7-2.2,1.3-3.4,1.7
	c-1.9,0.4-3.8,0.4-5.8,0.2l0,0c-5.3-0.8-11.1-3.3-16.2-3.5c-1.2-0.1-2.1-0.1-2.7-0.1c-2.1,0.1-4.2,0.5-6.2,1.2
	c-2.7,1-5.2,2.4-7.4,4.2c-0.5,0.4-1,0.9-1.5,1.3c0.1,0.1,0.1,0.1,0.1,0c1.6-0.8,3.3-1.4,5-1.8c1.8-0.5,3.7-0.7,5.5-0.7
	c2.2,0,4.4,0.3,6.6,0.9c1.7,0.6,3.4,1.3,5,2.1c4.2,2.3,9.2,2.5,13.5,0.5c2.9-1.4,5.5-3.5,7.5-6h-0.1"/>
</svg>
