<?xml version="1.0" encoding="utf-8"?>
<!-- Generator: Adobe Illustrator 23.0.1, SVG Export Plug-In . SVG Version: 6.00 Build 0)  -->
<svg version="1.1" id="Layer_1" xmlns="http://www.w3.org/2000/svg" xmlns:xlink="http://www.w3.org/1999/xlink" x="0px" y="0px"
	 viewBox="0 0 322 73" style="enable-background:new 0 0 322 73;" xml:space="preserve">
<style type="text/css">
	.st0{fill-rule:evenodd;clip-rule:evenodd;}
	.st1{fill-rule:evenodd;clip-rule:evenodd;fill:#A7A7A7;}
	.st2{fill:#A7A7A7;}
</style>
<title>KochChemie_Detailing_RU_vector_curves</title>
<desc>Created with Sketch.</desc>
<g id="Page-1">
	<g id="KochChemie_Detailing_RU_vector_curves">
		<polygon id="Path" class="st0" points="0,0.7 6,0.7 6,12 16.6,0.7 24.1,0.7 13.5,11.4 25.2,27.9 17.6,27.9 9.4,15.7 6,19.1 
			6,27.9 0,27.9 		"/>
		<g id="Group" transform="translate(24.000000, 0.000000)">
			<path id="Shape" d="M10.3,7.6c6.2,0,10.2,4.1,10.2,10.4c0,6.3-4,10.4-10.2,10.4c-6.2,0-10.2-4.1-10.2-10.4
				C0.1,11.8,4.1,7.6,10.3,7.6z M10.3,24.4c3.7,0,4.8-3.2,4.8-6.3c0-3.2-1.1-6.3-4.8-6.3c-3.7,0-4.8,3.2-4.8,6.3
				C5.5,21.2,6.6,24.4,10.3,24.4z"/>
			<path class="st0" d="M36.9,15.1c-0.3-2.2-1.8-3.4-4-3.4c-3.5,0-4.6,3.5-4.6,6.4c0,2.8,1.1,6.2,4.5,6.2c2.5,0,4-1.6,4.3-4h5.2
				c-0.7,5.2-4.3,8.1-9.5,8.1c-6,0-10-4.2-10-10.1c0-6.1,3.7-10.7,10.1-10.7c4.7,0,8.9,2.4,9.3,7.5L36.9,15.1L36.9,15.1z"/>
			<path class="st0" d="M44.8,0.7h5.4v10.3h0.1c1.4-2.2,3.7-3.3,5.8-3.3c5.8,0,7.2,3.3,7.2,8.1v12.1h-5.4V16.8c0-3.2-1-4.8-3.5-4.8
				c-2.9,0-4.2,1.6-4.2,5.6v10.4h-5.4V0.7z"/>
		</g>
		<g transform="translate(90.000000, 0.000000)">
			<path class="st1" d="M19.6,9.8c-0.4-2.7-3-4.8-6-4.8c-5.4,0-7.4,4.6-7.4,9.4c0,4.5,2,9.1,7.4,9.1c3.7,0,5.7-2.5,6.2-6.1h5.8
				c-0.6,6.8-5.3,11.1-12,11.1c-8.4,0-13.4-6.3-13.4-14.2C0.3,6.3,5.2,0,13.7,0c6,0,11,3.5,11.8,9.8H19.6z"/>
			<path class="st1" d="M28.5,0.7H34v10.3h0.1c1.4-2.2,3.7-3.3,5.8-3.3c5.8,0,7.2,3.3,7.2,8.1v12.1h-5.4V16.8c0-3.2-1-4.8-3.5-4.8
				c-2.9,0-4.2,1.6-4.2,5.6v10.4h-5.4L28.5,0.7L28.5,0.7z"/>
			<path class="st2" d="M55,19.4c0.1,3.4,1.8,5,4.8,5c2.2,0,3.9-1.3,4.3-2.6h4.8c-1.5,4.7-4.8,6.6-9.2,6.6
				c-6.2,0-10.1-4.3-10.1-10.4c0-5.9,4.1-10.4,10.1-10.4c6.7,0,10,5.7,9.6,11.7H55z M63.9,15.9c-0.5-2.8-1.7-4.2-4.3-4.2
				c-3.4,0-4.4,2.7-4.5,4.2H63.9z"/>
			<path class="st1" d="M72,8.2h5.1v2.7h0.1c1.4-2,3.5-3.2,6-3.2c2.5,0,4.7,0.9,5.8,3.3c1.2-1.7,3.2-3.3,6-3.3c4.2,0,7.2,2,7.2,7.1
				v13.2h-5.4V16.7c0-2.6-0.2-4.8-3.3-4.8c-3,0-3.6,2.5-3.6,5v11h-5.4V16.8c0-2.3,0.2-4.9-3.3-4.9c-1.1,0-3.7,0.7-3.7,4.5v11.5H72
				V8.2z"/>
			<path class="st2" d="M111.4,5.1H106V0.7h5.4V5.1z M106,8.2h5.4v19.7H106V8.2z"/>
			<path class="st2" d="M119.6,19.4c0.2,3.4,1.8,5,4.8,5c2.2,0,3.9-1.3,4.3-2.6h4.8c-1.5,4.7-4.8,6.6-9.2,6.6
				c-6.2,0-10.1-4.3-10.1-10.4c0-5.9,4.1-10.4,10.1-10.4c6.7,0,10,5.7,9.6,11.7H119.6z M128.4,15.9c-0.5-2.8-1.7-4.2-4.3-4.2
				c-3.4,0-4.4,2.7-4.5,4.2H128.4z"/>
		</g>
		<path class="st2" d="M228.9,2.5c2.5,0,4.6,1.8,4.6,4.5c0,2.8-2.2,4.5-4.6,4.5c-2.4,0-4.6-1.8-4.6-4.5
			C224.3,4.3,226.4,2.5,228.9,2.5z M228.9,10.6c1.9,0,3.4-1.5,3.4-3.6c0-2.1-1.5-3.5-3.4-3.5c-1.9,0-3.4,1.5-3.4,3.5
			C225.5,9.1,227,10.6,228.9,10.6z M227.1,4.5h1.9c1.3,0,2,0.4,2,1.5c0,0.9-0.6,1.3-1.3,1.3l1.3,2.2h-1l-1.2-2.2h-0.6v2.2h-1V4.5z
			 M228.1,6.6h0.9c0.6,0,1-0.1,1-0.7c0-0.5-0.6-0.6-1-0.6h-0.8L228.1,6.6L228.1,6.6z"/>
		<g transform="translate(0.000000, 37.000000)">
			<path d="M0.1,35.7v-12h2.1c3.3-4.5,4.3-10,4.3-18V1.6h19.3v22.1h2.9v12H23v-7H6v7H0.1z M19.9,6.6h-7.5v0.5
				c0,7.4-1.1,12.2-3.6,16.6h11.1V6.6z"/>
			<path d="M35.6,20.3c0.2,3.5,1.8,5,4.8,5c2.2,0,3.9-1.3,4.3-2.5h4.8c-1.5,4.7-4.8,6.6-9.2,6.6c-6.2,0-10-4.3-10-10.3
				c0-5.9,4.1-10.4,10-10.4c6.7,0,10,5.6,9.5,11.7H35.6z M44.4,16.8c-0.5-2.7-1.7-4.2-4.3-4.2c-3.5,0-4.4,2.7-4.5,4.2H44.4z"/>
			<polygon class="st0" points="62.5,13.2 62.5,28.8 57.1,28.8 57.1,13.2 50.6,13.2 50.6,9.1 68.9,9.1 68.9,13.2 			"/>
			<path d="M75.1,20.3c0.2,3.5,1.8,5,4.8,5c2.2,0,3.9-1.3,4.3-2.5h4.8c-1.5,4.7-4.8,6.6-9.2,6.6c-6.2,0-10-4.3-10-10.3
				c0-5.9,4.1-10.4,10-10.4c6.7,0,10,5.6,9.5,11.7H75.1z M83.9,16.8c-0.5-2.7-1.7-4.2-4.3-4.2c-3.5,0-4.4,2.7-4.5,4.2H83.9z"/>
			<path d="M105.7,28.8v-13l-7.1,13h-6V9.1h5.2v13l7.1-13h6v19.7H105.7z M97.8,1c0.3,1.9,2.2,2.5,3.8,2.5c2.3,0,3.7-0.8,4.2-2.5h2.4
				c-0.5,3.8-3,5.4-6.8,5.4c-3.7,0-5.7-1.9-6.1-5.4H97.8z"/>
			<path class="st0" d="M128,28.8V13.2h-5.2l-0.3,8.6c-0.2,5.2-2.4,7.5-6.6,7.5c-0.8,0-1.6-0.1-2.5-0.4v-4.2
				c0.4,0.1,0.9,0.2,1.5,0.2c1.6,0,2.4-1,2.4-3.5l0.3-12.3h15.8v19.7H128z"/>
			<polygon class="st0" points="150.8,28.8 150.8,15.8 143.6,28.8 137.6,28.8 137.6,9.1 142.8,9.1 142.8,22.1 149.9,9.1 155.9,9.1 
				155.9,28.8 			"/>
			<polygon class="st0" points="173.1,28.8 173.1,20.5 165.6,20.5 165.6,28.8 160.2,28.8 160.2,9.1 165.6,9.1 165.6,16.3 
				173.1,16.3 173.1,9.1 178.5,9.1 178.5,28.8 			"/>
			<polygon class="st0" points="188.1,13.2 188.1,28.8 182.7,28.8 182.7,9.1 197.6,9.1 197.6,13.2 			"/>
			<polygon class="st0" points="220.6,35.7 220.6,28.8 200.5,28.8 200.5,1.6 206.5,1.6 206.5,23.8 217.5,23.8 217.5,1.6 223.4,1.6 
				223.4,23.8 226.4,23.8 226.4,35.7 			"/>
			<path d="M233.2,20.3c0.2,3.5,1.8,5,4.8,5c2.2,0,3.9-1.3,4.3-2.5h4.8c-1.5,4.7-4.8,6.6-9.2,6.6c-6.2,0-10-4.3-10-10.3
				c0-5.9,4.1-10.4,10-10.4c6.7,0,10,5.6,9.5,11.7H233.2z M242,16.8c-0.5-2.7-1.7-4.2-4.3-4.2c-3.5,0-4.4,2.7-4.5,4.2H242z"/>
			<polygon class="st0" points="263.5,28.8 263.5,20.5 256,20.5 256,28.8 250.6,28.8 250.6,9.1 256,9.1 256,16.3 263.5,16.3 
				263.5,9.1 268.9,9.1 268.9,28.8 			"/>
			<polygon class="st0" points="283.3,13.2 283.3,28.8 277.9,28.8 277.9,13.2 271.4,13.2 271.4,9.1 289.7,9.1 289.7,13.2 			"/>
			<path d="M292.1,9.1h5.1v2.5h0.1c1.3-2.1,3.4-3,5.9-3c6.2,0,8.9,5,8.9,10.6c0,5.2-2.9,10.1-8.6,10.1c-2.4,0-4.6-1-5.9-3h-0.1v9.4
				h-5.4L292.1,9.1L292.1,9.1z M306.7,19c0-3.2-1.2-6.3-4.7-6.3c-3.5,0-4.7,3.2-4.7,6.3s1.2,6.2,4.7,6.2
				C305.6,25.2,306.7,22.2,306.7,19z"/>
			<polygon class="st0" points="315.6,22.9 321.5,22.9 321.5,28.8 315.6,28.8 			"/>
		</g>
	</g>
</g>
</svg>
