<svg id="Layer_1" data-name="Layer 1" xmlns="http://www.w3.org/2000/svg" xmlns:xlink="http://www.w3.org/1999/xlink" viewBox="0 0 88 62"><defs><style>.cls-1{fill:none;}.cls-2{clip-path:url(#clip-path);}</style><clipPath id="clip-path" transform="translate(5 6)"><path class="cls-1" d="M50,29.13l-5.16,4.62a8.79,8.79,0,0,1-11.62,0l-5.16-4.59L5.31,51c.22,0,.46,0,.69,0H72q.33,0,.66,0Zm27.94-25L54.5,25.09,77.56,47.28A5.94,5.94,0,0,0,78,45V5a7.72,7.72,0,0,0-.06-.84ZM.06,4.16A5.83,5.83,0,0,0,0,5V45a5.92,5.92,0,0,0,.47,2.31L23.56,25.13.06,4.16ZM6-1a6,6,0,0,0-2.25.44L37.22,29.25a2.49,2.49,0,0,0,3.62,0L74.25-.56A6,6,0,0,0,72-1Z"/></clipPath></defs><title>mail</title><g class="cls-2"><rect fill="#61a2de" width="88" height="62"/></g></svg>