<svg id="Layer_1" data-name="Layer 1" xmlns="http://www.w3.org/2000/svg" xmlns:xlink="http://www.w3.org/1999/xlink" viewBox="0 0 62.7 62.76"><defs><style>.cls-1{fill:none;}.cls-2{clip-path:url(#clip-path);}</style><clipPath id="clip-path" transform="translate(4.32 4.36)"><path class="cls-1" d="M12.64.65a2.44,2.44,0,0,1,.81.44c1.51,1,4.14,4.79,8,10h0c.87,1.17.78,1.46.75,1.59a4.88,4.88,0,0,1-1.19,1.54l-3,3a2.7,2.7,0,0,0-.4.54A9.17,9.17,0,0,0,16.48,21a7.64,7.64,0,0,0,1.87,6.1v0h0c1.31,1.53,2.71,3,4.16,4.47s2.92,2.79,4.44,4.09v0h0a7.72,7.72,0,0,0,6.12,1.88,9,9,0,0,0,3.22-1.25,2.45,2.45,0,0,0,.53-.38l3-3a4.8,4.8,0,0,1,1.5-1.18c.14,0,.45-.13,1.63.75,5.24,3.89,9,6.51,10,8a1.46,1.46,0,0,1,.28,1.68,11.72,11.72,0,0,1-2.91,3.91l-1.09,1.09c-2.08,2.08-3.79,4.31-5.78,5.35s-4.29,1.43-8.88-1A77.75,77.75,0,0,1,16.1,37.93,77.58,77.58,0,0,1,2.45,19.46C.78,16.31.51,14.16.76,12.56A7.9,7.9,0,0,1,3,8.4C4.09,7.22,5.45,6.12,6.76,4.81l1.09-1.1A12,12,0,0,1,11.79.78a1.68,1.68,0,0,1,.85-.13Z"/></clipPath></defs><title>phone</title><g class="cls-2"><rect fill="#61a2de" width="62.7" height="62.76"/></g></svg>