<svg version="1.1" id="Layer_1" xmlns="http://www.w3.org/2000/svg" xmlns:xlink="http://www.w3.org/1999/xlink" x="0px" y="0px"
	 viewBox="0 0 90 91" style="enable-background:new 0 0 90 91;" xml:space="preserve">
<style type="text/css">
	.st0{fill:none;}
</style>
<title>search</title>
<desc>Created with Sketch.</desc>
<g>
	<path class="st0" d="M37.5,12.7c-13.8,0-25,11.4-25,25.4s11.2,25.4,25,25.4s25-11.4,25-25.4C62.6,24,51.4,12.7,37.5,12.7z"/>
	<path d="M88.1,79.2L68.6,59.4c4-6.1,6.4-13.4,6.4-21.3C75,17,58.2,0,37.5,0S0,17,0,38.1c0,21,16.8,38,37.5,38.1
		c8.5,0,16.2-2.8,22.5-7.6l19.3,19.6c2.4,2.5,6.4,2.5,8.8,0C90.5,85.7,90.5,81.7,88.1,79.2z M37.5,63.5c-13.8,0-25-11.4-25-25.4
		s11.2-25.4,25-25.4c13.9,0,25.1,11.3,25,25.4C62.5,52.1,51.3,63.5,37.5,63.5z"/>
</g>
</svg>
